<svg width="18" height="16" viewBox="0 0 18 16" fill="none" xmlns="http://www.w3.org/2000/svg">
<path d="M0.875 12.625C5.32134 12.6214 9.74834 13.2102 14.0392 14.3758C14.645 14.5408 15.25 14.0908 15.25 13.4625V12.625M2.125 0.75V1.375C2.125 1.54076 2.05915 1.69973 1.94194 1.81694C1.82473 1.93415 1.66576 2 1.5 2H0.875M0.875 2V1.6875C0.875 1.17 1.295 0.75 1.8125 0.75H15.875M0.875 2V9.5M15.875 0.75V1.375C15.875 1.72 16.155 2 16.5 2H17.125M15.875 0.75H16.1875C16.705 0.75 17.125 1.17 17.125 1.6875V9.8125C17.125 10.33 16.705 10.75 16.1875 10.75H15.875M0.875 9.5V9.8125C0.875 10.0611 0.973772 10.2996 1.14959 10.4754C1.3254 10.6512 1.56386 10.75 1.8125 10.75H2.125M0.875 9.5H1.5C1.66576 9.5 1.82473 9.56585 1.94194 9.68306C2.05915 9.80027 2.125 9.95924 2.125 10.125V10.75M15.875 10.75V10.125C15.875 9.95924 15.9408 9.80027 16.0581 9.68306C16.1753 9.56585 16.3342 9.5 16.5 9.5H17.125M15.875 10.75H2.125M11.5 5.75C11.5 6.41304 11.2366 7.04893 10.7678 7.51777C10.2989 7.98661 9.66304 8.25 9 8.25C8.33696 8.25 7.70107 7.98661 7.23223 7.51777C6.76339 7.04893 6.5 6.41304 6.5 5.75C6.5 5.08696 6.76339 4.45107 7.23223 3.98223C7.70107 3.51339 8.33696 3.25 9 3.25C9.66304 3.25 10.2989 3.51339 10.7678 3.98223C11.2366 4.45107 11.5 5.08696 11.5 5.75ZM14 5.75H14.0067V5.75667H14V5.75ZM4 5.75H4.00667V5.75667H4V5.75Z" stroke="#323232" stroke-width="1.2" stroke-linecap="round" stroke-linejoin="round"/>
</svg>
