<svg width="14" height="14" viewBox="0 0 14 14" fill="none" xmlns="http://www.w3.org/2000/svg">
<path d="M2 0C0.89543 0 0 0.89543 0 2V3C0 4.10457 0.89543 5 2 5H2.26756C2.09739 5.29417 2 5.63571 2 6V8C2 8.5973 2.26188 9.1335 2.67709 9.5C2.26188 9.8665 2 10.4027 2 11V12C2 13.1046 2.89543 14 4 14H12C13.1046 14 14 13.1046 14 12V11C14 10.4027 13.7381 9.8665 13.3229 9.5C13.7381 9.1335 14 8.5973 14 8V6C14 5.40265 13.7381 4.86647 13.3229 4.5C13.7381 4.13353 14 3.59735 14 3V2C14 0.89543 13.1046 0 12 0H2ZM12 9H7V5H12C12.5523 5 13 5.44772 13 6V8C13 8.5523 12.5523 9 12 9ZM6 5V9H4C3.44772 9 3 8.5523 3 8V6C3 5.44772 3.44772 5 4 5H6ZM7 10H12C12.5523 10 13 10.4477 13 11V12C13 12.5523 12.5523 13 12 13H7V10ZM6 10V13H4C3.44772 13 3 12.5523 3 12V11C3 10.4477 3.44772 10 4 10H6ZM5 4V1H12C12.5523 1 13 1.44772 13 2V3C13 3.55228 12.5523 4 12 4H5ZM4 4H2C1.44772 4 1 3.55228 1 3V2C1 1.44772 1.44772 1 2 1H4V4Z" fill="#323232"/>
</svg>
