<svg width="15" height="16" viewBox="0 0 15 16" fill="none" xmlns="http://www.w3.org/2000/svg">
<path d="M0.0839844 1.54102C0.0839844 1.19584 0.363809 0.916016 0.708984 0.916016H1.1742C1.96626 0.916016 2.4405 1.44851 2.71169 1.94351C2.89245 2.27347 3.02322 2.65617 3.1255 3.00264C3.1532 3.00047 3.18127 2.99935 3.20965 2.99935H13.6241C14.3159 2.99935 14.8155 3.66137 14.6258 4.32668L13.1027 9.6676C12.822 10.652 11.9225 11.3308 10.8989 11.3308H5.94213C4.91005 11.3308 4.00532 10.6409 3.73218 9.64568L3.09843 7.33643L2.0496 3.79583L2.0479 3.78963C1.91815 3.31644 1.79638 2.87439 1.61543 2.5441C1.4397 2.22335 1.29963 2.16602 1.1742 2.16602H0.708984C0.363809 2.16602 0.0839844 1.88619 0.0839844 1.54102ZM4.31134 7.03293L4.9376 9.31485C5.06176 9.76727 5.473 10.0808 5.94213 10.0808H10.8989C11.3642 10.0808 11.773 9.77227 11.9007 9.32485L13.348 4.24935H3.48856L4.29987 6.98835C4.30427 7.00318 4.30808 7.01802 4.31134 7.03293ZM7.16732 13.8327C7.16732 14.7532 6.42115 15.4993 5.50065 15.4993C4.58018 15.4993 3.83398 14.7532 3.83398 13.8327C3.83398 12.9122 4.58018 12.166 5.50065 12.166C6.42115 12.166 7.16732 12.9122 7.16732 13.8327ZM5.91732 13.8327C5.91732 13.6026 5.73077 13.416 5.50065 13.416C5.27053 13.416 5.08398 13.6026 5.08398 13.8327C5.08398 14.0628 5.27053 14.2493 5.50065 14.2493C5.73077 14.2493 5.91732 14.0628 5.91732 13.8327ZM13.0007 13.8327C13.0007 14.7532 12.2545 15.4993 11.334 15.4993C10.4135 15.4993 9.66732 14.7532 9.66732 13.8327C9.66732 12.9122 10.4135 12.166 11.334 12.166C12.2545 12.166 13.0007 12.9122 13.0007 13.8327ZM11.7507 13.8327C11.7507 13.6026 11.5641 13.416 11.334 13.416C11.1039 13.416 10.9173 13.6026 10.9173 13.8327C10.9173 14.0628 11.1039 14.2493 11.334 14.2493C11.5641 14.2493 11.7507 14.0628 11.7507 13.8327Z" fill="#323232"/>
</svg>
