<svg width="12" height="18" viewBox="0 0 12 18" fill="none" xmlns="http://www.w3.org/2000/svg">
<path d="M6.00033 0.666672C9.22199 0.666672 11.8337 3.27835 11.8337 6.50001C11.8337 8.08917 11.1982 9.52992 10.1675 10.5819L10.1663 16.7085C10.1663 17.1851 9.66083 17.4755 9.25616 17.265L9.18158 17.2196L5.99958 14.9798L2.8192 17.2195C2.42948 17.4939 1.90094 17.2478 1.84011 16.7956L1.83433 16.7085L1.83313 10.5819C0.802459 9.52992 0.166992 8.08917 0.166992 6.50001C0.166992 3.27835 2.77867 0.666672 6.00033 0.666672ZM8.91633 15.5043L8.91649 11.5533C8.05858 12.0493 7.06266 12.3333 6.00033 12.3333C4.93799 12.3333 3.94204 12.0493 3.08414 11.5533L3.08433 15.5039L5.63958 13.7044C5.82841 13.5714 6.07249 13.5548 6.27516 13.6544L6.35916 13.7043L8.91633 15.5043ZM6.00033 1.91667C3.46902 1.91667 1.41699 3.9687 1.41699 6.50001C1.41699 9.03134 3.46902 11.0833 6.00033 11.0833C8.53166 11.0833 10.5837 9.03134 10.5837 6.50001C10.5837 3.9687 8.53166 1.91667 6.00033 1.91667Z" fill="#323232"/>
</svg>
