<svg width="14" height="18" viewBox="0 0 14 18" fill="none" xmlns="http://www.w3.org/2000/svg">
<path d="M2.41634 0.666656C1.26575 0.666656 0.333008 1.5994 0.333008 2.74999V15.25C0.333008 16.4006 1.26575 17.3333 2.41634 17.3333H13.0413C13.3865 17.3333 13.6663 17.0535 13.6663 16.7083C13.6663 16.3632 13.3865 16.0833 13.0413 16.0833H2.41634C1.95611 16.0833 1.58301 15.7102 1.58301 15.25H13.0413C13.3865 15.25 13.6663 14.9702 13.6663 14.625V2.74999C13.6663 1.5994 12.7336 0.666656 11.583 0.666656H2.41634ZM1.58301 14V2.74999C1.58301 2.28976 1.95611 1.91666 2.41634 1.91666H11.583C12.0433 1.91666 12.4163 2.28976 12.4163 2.74999V14H1.58301ZM8.66634 5.66666C8.66634 6.58713 7.92017 7.33332 6.99967 7.33332C6.07917 7.33332 5.33301 6.58713 5.33301 5.66666C5.33301 4.74618 6.07917 3.99999 6.99967 3.99999C7.92017 3.99999 8.66634 4.74618 8.66634 5.66666ZM9.91634 9.41666C9.91634 10.4543 9.08301 11.5 6.99967 11.5C4.91634 11.5 4.08301 10.4582 4.08301 9.41666C4.08301 8.72632 4.64265 8.16666 5.33301 8.16666H8.66634C9.35667 8.16666 9.91634 8.72632 9.91634 9.41666Z" fill="#323232"/>
</svg>
