<svg width="16" height="16" viewBox="0 0 16 16" fill="none" xmlns="http://www.w3.org/2000/svg">
<g clip-path="url(#clip0_365_712)">
<path d="M5.1646 10.8571L10.8789 5.14285M0.570313 12.5714C0.570312 12.8741 0.690406 13.1645 0.904239 13.3787C1.11807 13.593 1.40818 13.7137 1.71088 13.7143H14.2869C14.5896 13.7137 14.8797 13.593 15.0935 13.3787C15.3074 13.1645 15.4275 12.8741 15.4275 12.5714V10.2468C14.934 10.113 14.4983 9.82051 14.1877 9.41442C13.877 9.00833 13.7087 8.51127 13.7087 7.99999C13.7087 7.48871 13.877 6.99166 14.1877 6.58557C14.4983 6.17948 14.934 5.88694 15.4275 5.75313V3.42856C15.4275 3.12585 15.3074 2.83551 15.0935 2.62125C14.8797 2.40699 14.5896 2.28631 14.2869 2.28571H1.71088C1.40818 2.28631 1.11807 2.40699 0.904239 2.62125C0.690406 2.83551 0.570312 3.12585 0.570313 3.42856V5.74856C1.06771 5.87939 1.50778 6.17124 1.82181 6.57854C2.13584 6.98585 2.30615 7.48568 2.30615 7.99999C2.30615 8.5143 2.13584 9.01413 1.82181 9.42144C1.50778 9.82875 1.06771 10.1206 0.570313 10.2514V12.5714Z" stroke="black" stroke-width="1.3" stroke-linecap="round" stroke-linejoin="round"/>
<path d="M5.73549 6.28568C5.88704 6.28568 6.03239 6.22548 6.13955 6.11831C6.24672 6.01115 6.30692 5.8658 6.30692 5.71425C6.30692 5.5627 6.24672 5.41735 6.13955 5.31019C6.03239 5.20303 5.88704 5.14282 5.73549 5.14282C5.58394 5.14282 5.43859 5.20303 5.33143 5.31019C5.22427 5.41735 5.16406 5.5627 5.16406 5.71425C5.16406 5.8658 5.22427 6.01115 5.33143 6.11831C5.43859 6.22548 5.58394 6.28568 5.73549 6.28568ZM10.3069 10.8571C10.4585 10.8571 10.6038 10.7969 10.711 10.6897C10.8181 10.5826 10.8783 10.4372 10.8783 10.2857C10.8783 10.1341 10.8181 9.98878 10.711 9.88162C10.6038 9.77445 10.4585 9.71425 10.3069 9.71425C10.1554 9.71425 10.01 9.77445 9.90286 9.88162C9.7957 9.98878 9.73549 10.1341 9.73549 10.2857C9.73549 10.4372 9.7957 10.5826 9.90286 10.6897C10.01 10.7969 10.1554 10.8571 10.3069 10.8571Z" stroke="black" stroke-width="1.3" stroke-linecap="round" stroke-linejoin="round"/>
</g>
<defs>
<clipPath id="clip0_365_712">
<rect width="16" height="16" fill="white"/>
</clipPath>
</defs>
</svg>
