<svg width="18" height="18" viewBox="0 0 18 18" fill="none" xmlns="http://www.w3.org/2000/svg">
<path d="M10.0596 0.669985C9.89068 0.66496 9.72693 0.728543 9.60568 0.846243C9.48443 0.963943 9.41602 1.12573 9.41602 1.29471V7.95824C9.41602 8.30349 9.69585 8.58324 10.041 8.58324H16.7046C16.8736 8.58324 17.0353 8.51483 17.153 8.39358C17.2708 8.27233 17.3343 8.10858 17.3293 7.93966C17.2114 3.97771 14.0216 0.78791 10.0596 0.669985ZM10.666 7.33329V1.97166C13.4511 2.34265 15.6567 4.54823 16.0277 7.33329H10.666ZM8.16602 2.9864C8.16602 2.81088 8.09218 2.64346 7.96268 2.52505C7.8331 2.40665 7.65977 2.34818 7.48493 2.36393C3.66165 2.70846 0.666016 5.92073 0.666016 9.83341C0.666016 13.9755 4.02388 17.3334 8.16602 17.3334C12.0787 17.3334 15.2909 14.3377 15.6354 10.5145C15.6512 10.3397 15.5928 10.1663 15.4743 10.0367C15.3559 9.90716 15.1885 9.83341 15.013 9.83341H8.16602V2.9864ZM1.91602 9.83341C1.91602 6.80978 4.06346 4.28716 6.91602 3.7083V10.4584C6.91602 10.8036 7.19584 11.0834 7.54102 11.0834H14.2911C13.7123 13.9359 11.1896 16.0834 8.16602 16.0834C4.71423 16.0834 1.91602 13.2852 1.91602 9.83341Z" fill="#323232"/>
</svg>
