<svg width="16" height="16" viewBox="0 0 16 16" fill="none" xmlns="http://www.w3.org/2000/svg">
<path d="M12.1665 13.6674C12.4427 13.6674 12.6667 13.8912 12.6667 14.1673C12.6667 14.4434 12.4429 14.6674 12.1668 14.6674L3.50015 14.67C3.224 14.67 3 14.4462 3 14.1701C3 13.894 3.22371 13.67 3.49985 13.67L12.1665 13.6674ZM7.76547 1.34197L7.83333 1.3374C8.08647 1.3374 8.29567 1.5255 8.3288 1.76956L8.33333 1.8374L8.33267 10.9608L10.8139 8.48049C10.9914 8.30303 11.2692 8.28689 11.4649 8.43216L11.521 8.48056C11.6985 8.65809 11.7146 8.93589 11.5693 9.13163L11.5209 9.18769L8.18913 12.5188C8.01173 12.6962 7.73413 12.7124 7.5384 12.5673L7.48233 12.519L4.14669 9.18789C3.95129 8.99276 3.95107 8.67616 4.14621 8.48076C4.32359 8.30316 4.60136 8.28683 4.7972 8.43196L4.85331 8.48029L7.33267 10.9561L7.33333 1.8374C7.33333 1.58427 7.52147 1.37508 7.76547 1.34197Z" fill="#212121"/>
</svg>
