<svg width="18" height="18" viewBox="0 0 18 18" fill="none" xmlns="http://www.w3.org/2000/svg">
<path d="M8.37483 10.4583L8.30475 10.3977C8.06008 10.2162 7.71283 10.2363 7.49092 10.4583L6.91642 11.0327L6.91618 5.45793L6.91047 5.37312C6.86909 5.06806 6.60759 4.83293 6.29118 4.83293L6.20637 4.83864C5.90131 4.88002 5.66618 5.14152 5.66618 5.45793L5.66642 11.0343L5.0915 10.4584L5.02141 10.3978C4.77677 10.2163 4.42954 10.2363 4.20762 10.4583C3.96349 10.7023 3.96342 11.098 4.20744 11.3421L5.84847 12.9844L5.91857 13.0449C6.16324 13.2265 6.51052 13.2064 6.73243 12.9845L8.37483 11.3421L8.43533 11.272C8.61692 11.0273 8.59667 10.6801 8.37483 10.4583ZM0.666016 9C0.666016 13.6023 4.39697 17.3333 8.99933 17.3333C13.6017 17.3333 17.3327 13.6023 17.3327 9C17.3327 4.39763 13.6017 0.666672 8.99933 0.666672C4.39698 0.666672 0.666016 4.39763 0.666016 9ZM16.0827 9C16.0827 12.912 12.9113 16.0833 8.99933 16.0833C5.08733 16.0833 1.91602 12.912 1.91602 9C1.91602 5.08799 5.08733 1.91667 8.99933 1.91667C12.9113 1.91667 16.0827 5.08799 16.0827 9ZM13.7914 10.4583L13.7213 10.3977C13.4767 10.2162 13.1294 10.2363 12.9076 10.4583L12.3331 11.0327L12.3328 5.45788L12.3272 5.37307C12.2857 5.06801 12.0242 4.83288 11.7078 4.83288L11.623 4.83859C11.318 4.87997 11.0828 5.14146 11.0828 5.45788L11.0831 11.0343L10.5082 10.4584L10.4382 10.3978C10.1935 10.2163 9.84625 10.2363 9.62433 10.4583C9.38017 10.7023 9.38017 11.098 9.62417 11.3421L11.2652 12.9843L11.3352 13.0448C11.5799 13.2265 11.9272 13.2063 12.1491 12.9844L13.7914 11.3421L13.8519 11.272C14.0335 11.0273 14.0133 10.6801 13.7914 10.4583Z" fill="#212121"/>
</svg>
