<svg width="18" height="14" viewBox="0 0 18 14" fill="none" xmlns="http://www.w3.org/2000/svg">
<path d="M3.3763 0.333334H14.6263C16.0705 0.333334 17.2506 1.46371 17.3304 2.88798L17.3346 3.04167V10.9583C17.3346 12.4025 16.2042 13.5827 14.78 13.6624L14.6263 13.6667H3.3763C1.93211 13.6667 0.751927 12.5363 0.672252 11.112L0.667969 10.9583V3.04167C0.667969 1.59748 1.79834 0.417292 3.22262 0.337617L3.3763 0.333334ZM16.0846 4.81083L9.29239 8.38642C9.13622 8.46858 8.95389 8.48033 8.7903 8.42167L8.71022 8.38642L1.91797 4.81167V10.9583C1.91797 11.7235 2.50723 12.351 3.25669 12.4118L3.3763 12.4167H14.6263C15.3915 12.4167 16.019 11.8274 16.0798 11.0779L16.0846 10.9583V4.81083ZM14.6263 1.58333H3.3763C2.61116 1.58333 1.98364 2.17259 1.9228 2.92206L1.91797 3.04167V3.39917L9.0013 7.12708L16.0846 3.39833V3.04167C16.0846 2.27653 15.4954 1.64901 14.7459 1.58817L14.6263 1.58333Z" fill="#212121"/>
</svg>
