<svg width="16" height="18" viewBox="0 0 16 18" fill="none" xmlns="http://www.w3.org/2000/svg">
<path d="M11.5418 3.31676C11.3325 3.59123 11.3853 3.98342 11.6598 4.19274C13.15 5.32929 14.0413 7.09018 14.0413 9C14.0413 12.1133 11.6865 14.6767 8.66076 15.0059L9.22442 14.4419C9.46851 14.1978 9.46851 13.8022 9.22442 13.5581C9.00251 13.3362 8.65526 13.316 8.41059 13.4976L8.34051 13.5581L6.67384 15.2248C6.45192 15.4466 6.43176 15.7938 6.61334 16.0385L6.67384 16.1086L8.34051 17.7753C8.58459 18.0193 8.98034 18.0193 9.22442 17.7753C9.44626 17.5534 9.46642 17.2062 9.28492 16.9615L9.22442 16.8914L8.59917 16.2673C12.3458 15.9625 15.2913 12.8253 15.2913 9C15.2913 6.69605 14.2148 4.56934 12.4178 3.1988C12.1433 2.98949 11.7511 3.04229 11.5418 3.31676ZM6.77492 0.224728C6.53084 0.468803 6.53084 0.864536 6.77492 1.10861L7.39934 1.73269C3.65308 2.038 0.708008 5.17507 0.708008 9C0.708008 11.2038 1.69239 13.2478 3.35868 14.6243C3.62481 14.8441 4.01875 14.8066 4.23858 14.5404C4.45841 14.2743 4.42088 13.8803 4.15476 13.6605C2.77295 12.5191 1.95801 10.8268 1.95801 9C1.95801 5.88697 4.31244 3.32384 7.33776 2.99418L6.77492 3.55806C6.53084 3.80214 6.53084 4.19787 6.77492 4.44195C7.01901 4.68602 7.41476 4.68602 7.65884 4.44195L9.32551 2.77528C9.56959 2.5312 9.56959 2.13547 9.32551 1.89139L7.65884 0.224728C7.41476 -0.019347 7.01901 -0.019347 6.77492 0.224728Z" fill="#212121"/>
</svg>
