<svg width="18" height="18" viewBox="0 0 18 18" fill="none" xmlns="http://www.w3.org/2000/svg">
<path d="M9 4V14M6.5 11.6517L7.2325 12.2008C8.20833 12.9333 9.79083 12.9333 10.7675 12.2008C11.7442 11.4683 11.7442 10.2817 10.7675 9.54917C10.28 9.1825 9.64 9 9 9C8.39583 9 7.79167 8.81667 7.33083 8.45083C6.40917 7.71833 6.40917 6.53167 7.33083 5.79917C8.2525 5.06667 9.7475 5.06667 10.6692 5.79917L11.015 6.07417M16.5 9C16.5 9.98491 16.306 10.9602 15.9291 11.8701C15.5522 12.7801 14.9997 13.6069 14.3033 14.3033C13.6069 14.9997 12.7801 15.5522 11.8701 15.9291C10.9602 16.306 9.98491 16.5 9 16.5C8.01509 16.5 7.03982 16.306 6.12987 15.9291C5.21993 15.5522 4.39314 14.9997 3.6967 14.3033C3.00026 13.6069 2.44781 12.7801 2.0709 11.8701C1.69399 10.9602 1.5 9.98491 1.5 9C1.5 7.01088 2.29018 5.10322 3.6967 3.6967C5.10322 2.29018 7.01088 1.5 9 1.5C10.9891 1.5 12.8968 2.29018 14.3033 3.6967C15.7098 5.10322 16.5 7.01088 16.5 9Z" stroke="#323232" stroke-width="1.3" stroke-linecap="round" stroke-linejoin="round"/>
</svg>
