<svg width="14" height="18" viewBox="0 0 14 18" fill="none" xmlns="http://www.w3.org/2000/svg">
<path d="M1.99967 0.666656C1.0792 0.666656 0.333008 1.41285 0.333008 2.33332V15.6667C0.333008 16.5872 1.0792 17.3333 1.99967 17.3333H11.9997C12.9202 17.3333 13.6663 16.5872 13.6663 15.6667V7.1898C13.6663 6.74777 13.4908 6.32385 13.1782 6.01128L8.32167 1.15481C8.00917 0.842248 7.58526 0.666656 7.14317 0.666656H1.99967ZM1.58301 2.33332C1.58301 2.10321 1.76956 1.91666 1.99967 1.91666H6.99967V5.66666C6.99967 6.58713 7.74584 7.33332 8.66634 7.33332H12.4163V15.6667C12.4163 15.8967 12.2298 16.0833 11.9997 16.0833H1.99967C1.76956 16.0833 1.58301 15.8967 1.58301 15.6667V2.33332ZM11.4824 6.08332H8.66634C8.43626 6.08332 8.24967 5.89677 8.24967 5.66666V2.85054L11.4824 6.08332Z" fill="#323232"/>
</svg>
