<svg width="20" height="20" viewBox="0 0 20 20" fill="none" xmlns="http://www.w3.org/2000/svg">
<path d="M5.20833 2.5H14.7917C16.2358 2.5 17.416 3.63037 17.4957 5.05465L17.5 5.20833V14.7917C17.5 16.2358 16.3696 17.416 14.9453 17.4957L14.7917 17.5H5.20833C3.76414 17.5 2.58396 16.3696 2.50428 14.9453L2.5 14.7917V5.20833C2.5 3.76414 3.63037 2.58396 5.05465 2.50428L5.20833 2.5ZM6.93751 12.0833H3.75V14.7917C3.75 15.5568 4.33926 16.1843 5.08873 16.2452L5.20833 16.25H14.7917C15.5568 16.25 16.1843 15.6607 16.2452 14.9112L16.25 14.7917V12.0833H13.0625C12.7837 13.4569 11.6039 14.5033 10.1669 14.5789L10 14.5833C8.54417 14.5833 7.32082 13.5877 6.97364 12.2403L6.93751 12.0833ZM14.7917 3.75H5.20833C4.44319 3.75 3.81567 4.33926 3.75483 5.08873L3.75 5.20833V10.8333H7.5C7.81642 10.8333 8.07791 11.0685 8.11929 11.3735L8.125 11.4583C8.125 12.4938 8.9645 13.3333 10 13.3333C10.9924 13.3333 11.8047 12.5623 11.8707 11.5867L11.875 11.4583C11.875 11.1419 12.1102 10.8804 12.4152 10.839L12.5 10.8333H16.25V5.20833C16.25 4.44319 15.6607 3.81567 14.9112 3.75483L14.7917 3.75ZM5.625 7.91667H14.375C14.7202 7.91667 15 8.19649 15 8.54167C15 8.85808 14.7648 9.11958 14.4598 9.161L14.375 9.16667H5.625C5.27982 9.16667 5 8.88683 5 8.54167C5 8.22525 5.23513 7.96376 5.54019 7.92238L5.625 7.91667ZM5.625 5.41667H14.375C14.7202 5.41667 15 5.69649 15 6.04167C15 6.35808 14.7648 6.61958 14.4598 6.66096L14.375 6.66667H5.625C5.27982 6.66667 5 6.38684 5 6.04167C5 5.72525 5.23513 5.46376 5.54019 5.42237L5.625 5.41667Z" fill="#212121"/>
</svg>
