<svg width="14" height="18" viewBox="0 0 14 18" fill="none" xmlns="http://www.w3.org/2000/svg">
<path d="M11.7948 10.666C12.8298 10.666 13.6688 11.505 13.6688 12.5401V13.0196C13.6688 13.7649 13.4025 14.4855 12.9179 15.0517C11.6101 16.5796 9.62076 17.3336 6.99968 17.3336C4.3781 17.3336 2.38975 16.5794 1.0845 15.0508C0.601363 14.485 0.335938 13.7654 0.335938 13.0214V12.5401C0.335938 11.505 1.17498 10.666 2.21 10.666H11.7948ZM11.7948 11.916H2.21C1.86534 11.916 1.58594 12.1954 1.58594 12.5401V13.0214C1.58594 13.4679 1.7452 13.8996 2.03507 14.239C3.0795 15.4621 4.71773 16.0836 6.99968 16.0836C9.2816 16.0836 10.9213 15.4621 11.9683 14.2389C12.2591 13.8991 12.4188 13.4667 12.4188 13.0196V12.5401C12.4188 12.1954 12.1394 11.916 11.7948 11.916ZM6.99968 0.669922C9.30085 0.669922 11.1663 2.53541 11.1663 4.83659C11.1663 7.13778 9.30085 9.00327 6.99968 9.00327C4.69846 9.00327 2.83298 7.13778 2.83298 4.83659C2.83298 2.53541 4.69846 0.669922 6.99968 0.669922ZM6.99968 1.91992C5.38885 1.91992 4.08298 3.22576 4.08298 4.83659C4.08298 6.44742 5.38885 7.75327 6.99968 7.75327C8.61051 7.75327 9.91635 6.44742 9.91635 4.83659C9.91635 3.22576 8.61051 1.91992 6.99968 1.91992Z" fill="#323232"/>
</svg>
