<svg width="14" height="18" viewBox="0 0 14 18" fill="none" xmlns="http://www.w3.org/2000/svg">
<path d="M2.83398 9.20768C2.83398 8.86252 3.11381 8.58268 3.45898 8.58268C3.80416 8.58268 4.08398 8.86252 4.08398 9.20768C4.08398 9.55285 3.80416 9.83268 3.45898 9.83268C3.11381 9.83268 2.83398 9.55285 2.83398 9.20768ZM3.45898 11.0827C3.11381 11.0827 2.83398 11.3625 2.83398 11.7077C2.83398 12.0528 3.11381 12.3327 3.45898 12.3327C3.80416 12.3327 4.08398 12.0528 4.08398 11.7077C4.08398 11.3625 3.80416 11.0827 3.45898 11.0827ZM2.83398 14.2077C2.83398 13.8625 3.11381 13.5827 3.45898 13.5827C3.80416 13.5827 4.08398 13.8625 4.08398 14.2077C4.08398 14.5528 3.80416 14.8327 3.45898 14.8327C3.11381 14.8327 2.83398 14.5528 2.83398 14.2077ZM5.95898 8.58268C5.61382 8.58268 5.33398 8.86252 5.33398 9.20768C5.33398 9.55285 5.61382 9.83268 5.95898 9.83268H10.5423C10.8875 9.83268 11.1673 9.55285 11.1673 9.20768C11.1673 8.86252 10.8875 8.58268 10.5423 8.58268H5.95898ZM5.33398 11.7077C5.33398 11.3625 5.61382 11.0827 5.95898 11.0827H10.5423C10.8875 11.0827 11.1673 11.3625 11.1673 11.7077C11.1673 12.0528 10.8875 12.3327 10.5423 12.3327H5.95898C5.61382 12.3327 5.33398 12.0528 5.33398 11.7077ZM5.95898 13.5827C5.61382 13.5827 5.33398 13.8625 5.33398 14.2077C5.33398 14.5528 5.61382 14.8327 5.95898 14.8327H10.5423C10.8875 14.8327 11.1673 14.5528 11.1673 14.2077C11.1673 13.8625 10.8875 13.5827 10.5423 13.5827H5.95898ZM13.179 6.01101L8.32148 1.15435C8.30898 1.14189 8.2949 1.13108 8.2809 1.12034C8.27048 1.11241 8.26023 1.10452 8.25065 1.09602C8.19148 1.04268 8.13315 0.990182 8.06815 0.946016C8.04707 0.931799 8.02407 0.920582 8.00107 0.909407C7.98773 0.902899 7.9744 0.896407 7.96148 0.889349C7.94757 0.881507 7.93373 0.873491 7.91982 0.865457C7.87465 0.839324 7.82932 0.813082 7.78148 0.792682C7.61732 0.724349 7.44065 0.690182 7.26148 0.677682C7.24507 0.676632 7.22882 0.674416 7.21248 0.672191C7.1899 0.669107 7.16723 0.666016 7.14398 0.666016H2.00065C1.08065 0.666016 0.333984 1.41268 0.333984 2.33268V15.666C0.333984 16.586 1.08065 17.3327 2.00065 17.3327H12.0007C12.9207 17.3327 13.6673 16.586 13.6673 15.666V7.18935C13.6673 6.74768 13.4915 6.32351 13.179 6.01101ZM12.4173 15.666C12.4173 15.8952 12.2307 16.0827 12.0007 16.0827H2.00065C1.77065 16.0827 1.58398 15.8952 1.58398 15.666V2.33268C1.58398 2.10352 1.77065 1.91602 2.00065 1.91602H7.00065V5.66602C7.00065 6.58602 7.74732 7.33268 8.66732 7.33268H12.4173V15.666ZM8.25065 2.85018L11.4823 6.08268H8.66732C8.43732 6.08268 8.25065 5.89518 8.25065 5.66602V2.85018Z" fill="#323232"/>
</svg>
