<svg width="16" height="16" viewBox="0 0 16 16" fill="none" xmlns="http://www.w3.org/2000/svg">
<path d="M2.49609 0C1.11538 0 -0.00390625 1.11929 -0.00390625 2.5V11.5C-0.00390625 12.8807 1.11538 14 2.49609 14H7.15962C7.06062 13.6844 7.00522 13.35 6.99952 13H2.49609C1.66766 13 0.996094 12.3284 0.996094 11.5V4H13.999V3H13.9961V2.5C13.9961 1.11929 12.8768 0 11.4961 0H2.49609ZM12.9961 2.5V3H0.996094V2.5C0.996094 1.67157 1.66766 1 2.49609 1H11.4961C12.3245 1 12.9961 1.67157 12.9961 2.5ZM11.999 9C11.1706 9 10.499 8.3284 10.499 7.5C10.499 6.67157 11.1706 6 11.999 6H13.9992C13.5431 5.39278 12.8169 5 11.999 5C10.6183 5 9.49902 6.11929 9.49902 7.5C9.49902 8.8807 10.6183 10 11.999 10C12.8169 10 13.5431 9.6072 13.9992 9H11.999ZM9.54902 12C9.43412 12 9.29912 12.0597 9.18022 12.1934C9.05932 12.3293 8.99902 12.4946 8.99902 12.62V12.94C8.99902 13.829 9.96922 15 11.999 15H14.9868C14.2789 15.6082 13.2397 16 11.999 16C9.63222 16 7.99902 14.5744 7.99902 12.94V12.62C7.99902 12.2151 8.17372 11.8204 8.43292 11.5289C8.69402 11.2352 9.08402 11 9.54902 11H14.449C14.914 11 15.304 11.2352 15.5651 11.5289C15.6872 11.6663 15.7906 11.8266 15.8658 12H9.54902ZM14.499 7.5C14.499 7.6712 14.4818 7.8384 14.449 8H11.999V7H14.449C14.4818 7.1616 14.499 7.3288 14.499 7.5ZM11.999 14H15.7601C15.9075 13.6847 15.9898 13.3474 15.9983 13H11.999V14Z" fill="#323232"/>
</svg>
