<svg width="16" height="16" viewBox="0 0 16 16" fill="none" xmlns="http://www.w3.org/2000/svg">
<path d="M3.20833 0.5C1.71256 0.5 0.5 1.71256 0.5 3.20833V12.7917C0.5 14.2874 1.71256 15.5 3.20833 15.5H12.7917C14.2874 15.5 15.5 14.2874 15.5 12.7917V3.20833C15.5 1.71256 14.2874 0.5 12.7917 0.5H3.20833ZM1.75 3.20833C1.75 2.40292 2.40292 1.75 3.20833 1.75H12.7917C13.5971 1.75 14.25 2.40292 14.25 3.20833V12.7917C14.25 13.5971 13.5971 14.25 12.7917 14.25H3.20833C2.40292 14.25 1.75 13.5971 1.75 12.7917V3.20833ZM5.5 8C5.5 6.61925 6.61925 5.5 8 5.5C9.38075 5.5 10.5 6.61925 10.5 8C10.5 9.38075 9.38075 10.5 8 10.5C6.61925 10.5 5.5 9.38075 5.5 8ZM4.30185 7.375H3.625C3.27982 7.375 3 7.65483 3 8C3 8.34517 3.27982 8.625 3.625 8.625H4.30185C4.5653 10.1953 5.80468 11.4347 7.375 11.6982V12.375C7.375 12.7202 7.65483 13 8 13C8.34517 13 8.625 12.7202 8.625 12.375V11.6982C10.1953 11.4347 11.4347 10.1953 11.6982 8.625H12.375C12.7202 8.625 13 8.34517 13 8C13 7.65483 12.7202 7.375 12.375 7.375H11.6982C11.4347 5.80468 10.1953 4.5653 8.625 4.30185V3.625C8.625 3.27982 8.34517 3 8 3C7.65483 3 7.375 3.27982 7.375 3.625V4.30185C5.80468 4.5653 4.5653 5.80468 4.30185 7.375ZM9.25 8C9.25 8.69033 8.69033 9.25 8 9.25C7.30967 9.25 6.75 8.69033 6.75 8C6.75 7.30967 7.30967 6.75 8 6.75C8.69033 6.75 9.25 7.30967 9.25 8Z" fill="#323232"/>
</svg>
