<svg width="18" height="18" viewBox="0 0 18 18" fill="none" xmlns="http://www.w3.org/2000/svg">
<path d="M3.37533 0.666656C1.87955 0.666656 0.666992 1.87921 0.666992 3.37499V12.9583C0.666992 14.4541 1.87956 15.6667 3.37533 15.6667H6.56283C6.52184 15.4647 6.50033 15.2557 6.50033 15.0417V14.4167H3.37533C2.56991 14.4167 1.91699 13.7637 1.91699 12.9583V3.37499C1.91699 2.56957 2.56991 1.91666 3.37533 1.91666H12.1253C12.9307 1.91666 13.5837 2.56957 13.5837 3.37499V6.49999H14.8337V3.37499C14.8337 1.87921 13.6211 0.666656 12.1253 0.666656H3.37533ZM9.62533 6.49999H4.62533C4.28015 6.49999 4.00033 6.77981 4.00033 7.12499C4.00033 7.47016 4.28015 7.74999 4.62533 7.74999H7.1251C7.69524 6.99096 8.60291 6.49999 9.62533 6.49999ZM4.62533 3.99999C4.28015 3.99999 4.00033 4.27981 4.00033 4.62499C4.00033 4.97016 4.28015 5.24999 4.62533 5.24999H10.8753C11.2205 5.24999 11.5003 4.97016 11.5003 4.62499C11.5003 4.27981 11.2205 3.99999 10.8753 3.99999H4.62533ZM7.33366 9.62499C7.33366 8.35932 8.35966 7.33332 9.62533 7.33332H15.042C16.3077 7.33332 17.3337 8.35932 17.3337 9.62499V15.0417C17.3337 16.3073 16.3077 17.3333 15.042 17.3333H9.62533C8.35966 17.3333 7.33366 16.3073 7.33366 15.0417V9.62499ZM8.58366 11.5V15.0417C8.58366 15.617 9.04999 16.0833 9.62533 16.0833H15.042C15.6173 16.0833 16.0837 15.617 16.0837 15.0417V11.5H8.58366ZM16.0837 10.25V9.62499C16.0837 9.04966 15.6173 8.58332 15.042 8.58332H9.62533C9.04999 8.58332 8.58366 9.04966 8.58366 9.62499V10.25H16.0837Z" fill="#323232"/>
</svg>
