<svg width="17" height="18" viewBox="0 0 17 18" fill="none" xmlns="http://www.w3.org/2000/svg">
<path d="M8.88133 5.19233C9.69491 4.37874 11.014 4.37874 11.8276 5.19233C12.6412 6.00592 12.6412 7.32501 11.8276 8.1386C11.014 8.95219 9.69491 8.95219 8.88133 8.1386C8.06774 7.32501 8.06774 6.00592 8.88133 5.19233ZM10.9437 6.07621C10.6182 5.75078 10.0907 5.75077 9.76516 6.07621C9.43974 6.40165 9.43974 6.92929 9.76516 7.25472C10.0907 7.58019 10.6182 7.58019 10.9437 7.25472C11.2692 6.92929 11.2692 6.40165 10.9437 6.07621ZM15.9242 2.60182C15.7002 1.88115 15.1357 1.31695 14.415 1.09327L13.8632 0.922046C11.8687 0.303021 9.69533 0.840037 8.21849 2.3168L7.38866 3.1467C6.24718 2.2895 4.61963 2.3802 3.58104 3.4188L2.54559 4.45424C2.30151 4.69831 2.30151 5.09405 2.54559 5.33812L3.8714 6.66393L3.72156 6.81377C3.15204 7.38327 3.15204 8.30669 3.72156 8.87619L4.13435 9.28894L2.97139 9.95227C2.80209 10.0488 2.68754 10.2188 2.66159 10.4119C2.63564 10.6051 2.70129 10.7993 2.83909 10.9371L6.08001 14.178C6.21771 14.3157 6.41174 14.3814 6.60474 14.3556C6.79783 14.3298 6.96774 14.2154 7.06449 14.0464L7.72941 12.884L8.14374 13.2983C8.71324 13.8679 9.63658 13.8679 10.2061 13.2983L10.3534 13.151L11.6781 14.4757C11.9222 14.7197 12.3179 14.7197 12.562 14.4757L13.5974 13.4402C14.6356 12.402 14.7267 10.7753 13.8705 9.63394L14.7021 8.80227C16.1794 7.32497 16.7162 5.15054 16.0962 3.15541L15.9242 2.60182ZM14.0445 2.2871C14.3721 2.38877 14.6287 2.64523 14.7305 2.9728L14.9025 3.5264C15.3847 5.07816 14.9672 6.76939 13.8182 7.91844L9.32224 12.4144C9.24083 12.4958 9.10891 12.4958 9.02758 12.4144L4.60544 7.99227C4.52409 7.91094 4.52409 7.77902 4.60544 7.69769L9.10241 3.20068C10.251 2.0521 11.9414 1.63441 13.4927 2.11587L14.0445 2.2871ZM12.9704 10.534C13.3475 11.1721 13.2619 12.0079 12.7135 12.5564L12.12 13.1499L11.2373 12.2671L12.9704 10.534ZM4.46492 4.30268C5.01368 3.75392 5.85037 3.66858 6.48866 4.04665L4.75529 5.78005L3.87142 4.89618L4.46492 4.30268ZM6.81333 11.9679L6.38558 12.7158L4.30207 10.6324L5.05072 10.2054L6.81333 11.9679ZM3.57522 14.3285C3.81929 14.0844 3.81929 13.6887 3.57522 13.4446C3.33114 13.2005 2.93541 13.2005 2.69134 13.4446L0.628935 15.507C0.38486 15.7511 0.38486 16.1469 0.628935 16.3909C0.873019 16.635 1.26874 16.635 1.51282 16.3909L3.57522 14.3285ZM1.95474 11.8242C2.19881 12.0683 2.19881 12.464 1.95474 12.7081L1.07085 13.5919C0.826769 13.836 0.431044 13.836 0.186969 13.5919C-0.0571146 13.3479 -0.0571146 12.9521 0.186969 12.7081L1.07085 11.8242C1.31493 11.5801 1.71065 11.5801 1.95474 11.8242ZM5.19398 15.9507C5.43806 15.7066 5.43806 15.3109 5.19399 15.0669C4.94992 14.8228 4.55419 14.8228 4.3101 15.0669L3.42794 15.9489C3.18385 16.193 3.18385 16.5888 3.42793 16.8329C3.672 17.0769 4.06773 17.0769 4.31181 16.8329L5.19398 15.9507Z" fill="#323232"/>
</svg>
