<svg width="16" height="16" viewBox="0 0 16 16" fill="none" xmlns="http://www.w3.org/2000/svg">
<path d="M12.3327 13.334C12.3327 13.5173 12.1833 13.6673 11.9993 13.6673H8.17788C7.98642 14.0346 7.74388 14.3711 7.45962 14.6673H11.9993C12.7353 14.6673 13.3327 14.07 13.3327 13.334V6.55265C13.3327 6.19932 13.192 5.85998 12.942 5.60998L9.05602 1.72465C9.04602 1.71468 9.03475 1.70604 9.02355 1.69745C9.01522 1.6911 9.00702 1.68478 8.99935 1.67798C8.95202 1.63532 8.90535 1.59332 8.85335 1.55798C8.83648 1.54661 8.81808 1.53764 8.79968 1.5287C8.78902 1.52349 8.77835 1.5183 8.76802 1.51265C8.75688 1.50638 8.74582 1.49996 8.73468 1.49354C8.69855 1.47263 8.66228 1.45164 8.62402 1.43532C8.49268 1.38065 8.35135 1.35332 8.20802 1.34332C8.19488 1.34248 8.18188 1.3407 8.16882 1.33892C8.15075 1.33646 8.13262 1.33398 8.11402 1.33398H3.99935C3.26335 1.33398 2.66602 1.93132 2.66602 2.66732V7.66612C2.98213 7.53425 3.31721 7.43878 3.66602 7.38492V2.66732C3.66602 2.48398 3.81535 2.33398 3.99935 2.33398H7.99935V5.33398C7.99935 6.06998 8.59668 6.66732 9.33268 6.66732H12.3327V13.334ZM8.99935 3.08132L11.5847 5.66732H9.33268C9.14868 5.66732 8.99935 5.51732 8.99935 5.33398V3.08132Z" fill="#323232"/>
<path d="M7.99935 11.6667C7.99935 13.6917 6.35773 15.3333 4.33268 15.3333C2.30764 15.3333 0.666016 13.6917 0.666016 11.6667C0.666016 9.6416 2.30764 8 4.33268 8C6.35773 8 7.99935 9.6416 7.99935 11.6667ZM6.56838 10.0976C6.43821 9.96747 6.22716 9.96747 6.09698 10.0976L3.66602 12.5286L2.56838 11.4309C2.43821 11.3008 2.22716 11.3008 2.09698 11.4309C1.9668 11.5611 1.9668 11.7722 2.09698 11.9024L3.43032 13.2357C3.56049 13.3659 3.77154 13.3659 3.90172 13.2357L6.56838 10.5691C6.69855 10.4389 6.69855 10.2278 6.56838 10.0976Z" fill="#323232"/>
</svg>
