<svg width="16" height="16" viewBox="0 0 16 16" fill="none" xmlns="http://www.w3.org/2000/svg">
<path d="M13.9686 2.03272C13.0368 1.10104 11.5263 1.10108 10.5947 2.03282L2.628 10.0004C2.35712 10.2714 2.16672 10.6121 2.07798 10.9848L1.34759 14.0524C1.30738 14.2214 1.35766 14.399 1.48044 14.5218C1.60322 14.6446 1.7809 14.6948 1.9498 14.6546L5.0173 13.9243C5.3901 13.8355 5.73096 13.645 6.00192 13.374L13.9686 5.40639C14.9002 4.47473 14.9002 2.96432 13.9686 2.03272ZM11.3019 2.73988C11.8429 2.19871 12.7203 2.19868 13.2614 2.73982C13.8025 3.28092 13.8026 4.1582 13.2615 4.69932L12.6673 5.29362L10.7077 3.33406L11.3019 2.73988ZM10.0007 4.04121L11.9603 6.00077L5.29478 12.667C5.15468 12.8071 4.97844 12.9056 4.78568 12.9515L2.50859 13.4936L3.05079 11.2164C3.09666 11.0237 3.1951 10.8476 3.33515 10.7075L10.0007 4.04121Z" fill="#323232"/>
</svg>
