<svg width="18" height="18" viewBox="0 0 18 18" fill="none" xmlns="http://www.w3.org/2000/svg">
<path d="M5.08525 2.03975C5.30491 2.25942 5.30491 2.61558 5.08525 2.83525L3.42049 4.5H9.9375C13.1476 4.5 15.75 7.10234 15.75 10.3125C15.75 13.5226 13.1476 16.125 9.9375 16.125C6.72734 16.125 4.125 13.5226 4.125 10.3125C4.125 10.0018 4.37684 9.75 4.6875 9.75C4.99816 9.75 5.25 10.0018 5.25 10.3125C5.25 12.9013 7.34866 15 9.9375 15C12.5263 15 14.625 12.9013 14.625 10.3125C14.625 7.72365 12.5263 5.625 9.9375 5.625H3.42049L5.08525 7.28975C5.30491 7.50945 5.30491 7.86555 5.08525 8.08522C4.86558 8.3049 4.50942 8.3049 4.28975 8.08522L1.66475 5.46025C1.44508 5.24058 1.44508 4.88442 1.66475 4.66475L4.28975 2.03975C4.50942 1.82008 4.86558 1.82008 5.08525 2.03975Z" fill="#212121"/>
</svg>
