<svg width="14" height="14" viewBox="0 0 14 14" fill="none" xmlns="http://www.w3.org/2000/svg">
<path d="M5.66732 2.33333H8.33398C8.33398 1.59695 7.73705 1 7.00065 1C6.26425 1 5.66732 1.59695 5.66732 2.33333ZM4.66732 2.33333C4.66732 1.04467 5.71198 0 7.00065 0C8.28932 0 9.33398 1.04467 9.33398 2.33333H13.1673C13.4434 2.33333 13.6673 2.55719 13.6673 2.83333C13.6673 3.10947 13.4434 3.33333 13.1673 3.33333H12.2879L11.5066 11.4075C11.3826 12.6889 10.3057 13.6667 9.01818 13.6667H4.98311C3.69568 13.6667 2.61875 12.6889 2.49474 11.4075L1.71337 3.33333H0.833984C0.557844 3.33333 0.333984 3.10947 0.333984 2.83333C0.333984 2.55719 0.557844 2.33333 0.833984 2.33333H4.66732ZM6.00065 5.5C6.00065 5.22386 5.77678 5 5.50065 5C5.22451 5 5.00065 5.22386 5.00065 5.5V10.5C5.00065 10.7761 5.22451 11 5.50065 11C5.77678 11 6.00065 10.7761 6.00065 10.5V5.5ZM8.50065 5C8.77678 5 9.00065 5.22386 9.00065 5.5V10.5C9.00065 10.7761 8.77678 11 8.50065 11C8.22452 11 8.00065 10.7761 8.00065 10.5V5.5C8.00065 5.22386 8.22452 5 8.50065 5ZM3.49009 11.3111C3.5645 12.08 4.21065 12.6667 4.98311 12.6667H9.01818C9.79065 12.6667 10.4368 12.08 10.5112 11.3111L11.2833 3.33333H2.71804L3.49009 11.3111Z" fill="#212121"/>
</svg>
