<svg width="16" height="12" viewBox="0 0 16 12" fill="none" xmlns="http://www.w3.org/2000/svg">
<path d="M0.5 1.6875C0.5 0.75552 1.25552 0 2.1875 0H13.8125C14.7444 0 15.5 0.75552 15.5 1.6875V10.3125C15.5 11.2444 14.7444 12 13.8125 12H2.1875C1.25552 12 0.5 11.2444 0.5 10.3125V1.6875ZM2.1875 1.125C1.87684 1.125 1.625 1.37684 1.625 1.6875V10.3125C1.625 10.6231 1.87684 10.875 2.1875 10.875H13.8125C14.1231 10.875 14.375 10.6231 14.375 10.3125V1.6875C14.375 1.37684 14.1231 1.125 13.8125 1.125H2.1875ZM5.16475 3.16136C5.38442 2.94169 5.74058 2.94169 5.96025 3.16136L8.00052 5.2017L10.0437 3.1642C10.2636 2.94483 10.6198 2.94532 10.8392 3.1653C11.0586 3.38527 11.0581 3.74143 10.8381 3.9608L8.79605 5.99715L10.8386 8.03977C11.0583 8.25945 11.0583 8.61555 10.8386 8.83523C10.6189 9.0549 10.2628 9.0549 10.0431 8.83523L8.0003 6.79238L5.96052 8.835C5.74101 9.05482 5.38486 9.05505 5.16503 8.83552C4.94521 8.616 4.94496 8.25982 5.16448 8.04L7.20477 5.99685L5.16475 3.95686C4.94509 3.73719 4.94509 3.38104 5.16475 3.16136Z" fill="#BE123C"/>
</svg>
