<svg width="14" height="15" viewBox="0 0 14 15" fill="none" xmlns="http://www.w3.org/2000/svg">
<path d="M12.3327 12.334C12.3327 12.5173 12.1833 12.6673 11.9993 12.6673H8.17788C7.98642 13.0347 7.74388 13.3711 7.45962 13.6673H11.9993C12.7353 13.6673 13.3327 13.07 13.3327 12.334V5.55265C13.3327 5.19932 13.192 4.85998 12.942 4.60998L9.05602 0.724651C9.04602 0.714684 9.03475 0.706038 9.02355 0.697451C9.01522 0.691098 9.00702 0.684784 8.99935 0.677984C8.95202 0.635318 8.90535 0.593318 8.85335 0.557984C8.83648 0.546611 8.81808 0.537638 8.79968 0.528698C8.78902 0.523491 8.77835 0.518298 8.76802 0.512651C8.75688 0.506378 8.74582 0.499964 8.73468 0.493538C8.69855 0.472631 8.66228 0.451638 8.62402 0.435318C8.49268 0.380651 8.35135 0.353318 8.20802 0.343318C8.19488 0.342478 8.18188 0.340704 8.16882 0.338924C8.15075 0.336458 8.13262 0.333984 8.11402 0.333984H3.99935C3.26335 0.333984 2.66602 0.931318 2.66602 1.66732V6.66612C2.98213 6.53425 3.31721 6.43878 3.66602 6.38492V1.66732C3.66602 1.48398 3.81535 1.33398 3.99935 1.33398H7.99935V4.33398C7.99935 5.06998 8.59668 5.66732 9.33268 5.66732H12.3327V12.334ZM8.99935 2.08132L11.5847 4.66732H9.33268C9.14868 4.66732 8.99935 4.51732 8.99935 4.33398V2.08132ZM4.33268 14.334C2.30764 14.334 0.666016 12.6924 0.666016 10.6673C0.666016 8.64225 2.30764 7.00065 4.33268 7.00065C6.35773 7.00065 7.99935 8.64225 7.99935 10.6673C7.99935 12.6924 6.35773 14.334 4.33268 14.334ZM3.56838 9.23638C3.69856 9.10618 3.69856 8.89512 3.56838 8.76492C3.43821 8.63478 3.22716 8.63478 3.09698 8.76492L1.43032 10.4316C1.30014 10.5618 1.30014 10.7729 1.43032 10.9031L3.09698 12.5697C3.22716 12.6999 3.43821 12.6999 3.56838 12.5697C3.69856 12.4395 3.69856 12.2285 3.56838 12.0983L2.13742 10.6673L3.56838 9.23638ZM5.09698 8.76492C4.9668 8.89512 4.9668 9.10618 5.09698 9.23638L6.52794 10.6673L5.09698 12.0983C4.9668 12.2285 4.9668 12.4395 5.09698 12.5697C5.22716 12.6999 5.43821 12.6999 5.56838 12.5697L7.23508 10.9031C7.36522 10.7729 7.36522 10.5618 7.23508 10.4316L5.56838 8.76492C5.43821 8.63478 5.22716 8.63478 5.09698 8.76492Z" fill="#323232"/>
</svg>
