<svg width="18" height="18" viewBox="0 0 18 18" fill="none" xmlns="http://www.w3.org/2000/svg">
<path d="M4.04093 5.65255C4.16338 5.32981 4.52426 5.16745 4.84699 5.2899L9.00033 6.86563L13.1536 5.2899C13.4763 5.16745 13.8372 5.32981 13.9597 5.65255C14.0821 5.97528 13.9197 6.33616 13.597 6.4586L9.62533 7.96541V12.5409C9.62533 12.8862 9.34549 13.1659 9.00033 13.1659C8.65516 13.1659 8.37533 12.8862 8.37533 12.5409V7.9655L4.40359 6.4586C4.08086 6.33616 3.91849 5.97528 4.04093 5.65255ZM7.82624 1.09255C8.57924 0.787287 9.42141 0.787287 10.1744 1.09255L16.4232 3.62585C16.9736 3.84896 17.3337 4.3835 17.3337 4.97735V13.0212C17.3337 13.6151 16.9736 14.1497 16.4232 14.3727L10.1744 16.9061C9.42141 17.2113 8.57924 17.2113 7.82624 16.9061L1.57743 14.3727C1.02708 14.1497 0.666992 13.6151 0.666992 13.0212V4.97735C0.666992 4.3835 1.02708 3.84896 1.57743 3.62585L7.82624 1.09255ZM9.70474 2.25096C9.25299 2.06781 8.74766 2.06781 8.29591 2.25096L2.04705 4.78427C1.96843 4.81615 1.91699 4.89251 1.91699 4.97735V13.0212C1.91699 13.1061 1.96843 13.1825 2.04705 13.2143L8.29591 15.7477C8.74766 15.9308 9.25299 15.9308 9.70474 15.7477L15.9536 13.2143C16.0322 13.1825 16.0837 13.1061 16.0837 13.0212V4.97735C16.0837 4.89251 16.0322 4.81615 15.9536 4.78427L9.70474 2.25096Z" fill="#212121"/>
</svg>
