<svg width="16" height="17" viewBox="0 0 16 17" fill="none" xmlns="http://www.w3.org/2000/svg">
<path d="M8.83333 4.20862C8.83333 4.66885 8.46025 5.04195 8 5.04195C7.53975 5.04195 7.16667 4.66885 7.16667 4.20862C7.16667 3.74838 7.53975 3.37528 8 3.37528C8.46025 3.37528 8.83333 3.74838 8.83333 4.20862ZM8.85967 0.937209C8.3475 0.563467 7.6525 0.563467 7.14033 0.937209L0.955475 5.4505C0.141242 6.04467 0.561517 7.33358 1.5695 7.33358H1.75V12.1668C1.00798 12.5462 0.5 13.3181 0.5 14.2086V15.4586C0.5 15.8038 0.779825 16.0836 1.125 16.0836H14.875C15.2202 16.0836 15.5 15.8038 15.5 15.4586V14.2086C15.5 13.3181 14.992 12.5462 14.25 12.1668V7.33358H14.4305C15.4385 7.33358 15.8587 6.04468 15.0445 5.4505L8.85967 0.937209ZM7.87717 1.94694C7.95033 1.89355 8.04967 1.89355 8.12283 1.94694L13.7916 6.08362H2.20842L7.87717 1.94694ZM13 7.33358V11.9169H11.3333V7.33358H13ZM10.0833 7.33358V11.9169H8.625V7.33358H10.0833ZM7.375 7.33358V11.9169H5.91667V7.33358H7.375ZM2.79167 13.1669H13.2083C13.7837 13.1669 14.25 13.6333 14.25 14.2086V14.8336H1.75V14.2086C1.75 13.6333 2.21637 13.1669 2.79167 13.1669ZM3 11.9169V7.33358H4.66667V11.9169H3Z" fill="#323232"/>
</svg>
