<svg width="14" height="18" viewBox="0 0 14 18" fill="none" xmlns="http://www.w3.org/2000/svg">
<path d="M4.29134 8.58335C3.94617 8.58335 3.66634 8.86319 3.66634 9.20835C3.66634 9.55352 3.94617 9.83335 4.29134 9.83335H9.70801C10.0532 9.83335 10.333 9.55352 10.333 9.20835C10.333 8.86319 10.0532 8.58335 9.70801 8.58335H4.29134ZM4.29134 10.875C3.94617 10.875 3.66634 11.1549 3.66634 11.5C3.66634 11.8452 3.94617 12.125 4.29134 12.125H9.70801C10.0532 12.125 10.333 11.8452 10.333 11.5C10.333 11.1549 10.0532 10.875 9.70801 10.875H4.29134ZM4.29134 13.1667C3.94617 13.1667 3.66634 13.4465 3.66634 13.7917C3.66634 14.1369 3.94617 14.4167 4.29134 14.4167H9.70801C10.0532 14.4167 10.333 14.1369 10.333 13.7917C10.333 13.4465 10.0532 13.1667 9.70801 13.1667H4.29134ZM8.32051 1.15502L13.178 6.01169C13.4905 6.32419 13.6663 6.74835 13.6663 7.19002V15.6667C13.6663 16.5867 12.9197 17.3334 11.9997 17.3334H1.99967C1.07967 17.3334 0.333008 16.5867 0.333008 15.6667V2.33335C0.333008 1.41335 1.07967 0.666687 1.99967 0.666687H7.14301C7.16626 0.666687 7.18892 0.669779 7.21151 0.672862C7.22784 0.675087 7.24409 0.677304 7.26051 0.678354C7.43967 0.690854 7.61634 0.72502 7.78051 0.793354C7.82834 0.813754 7.87367 0.839995 7.91884 0.866129C7.93276 0.874162 7.94659 0.882179 7.96051 0.89002C7.97342 0.897079 7.98676 0.90357 8.00009 0.910079C8.02309 0.921254 8.04609 0.93247 8.06717 0.946687C8.13217 0.990854 8.19051 1.04335 8.24967 1.09669C8.25926 1.10519 8.26951 1.11308 8.27992 1.12102C8.29392 1.13175 8.30801 1.14256 8.32051 1.15502ZM11.9997 16.0834C12.2297 16.0834 12.4163 15.8959 12.4163 15.6667V7.33335H8.66634C7.74634 7.33335 6.99967 6.58669 6.99967 5.66669V1.91669H1.99967C1.76967 1.91669 1.58301 2.10419 1.58301 2.33335V15.6667C1.58301 15.8959 1.76967 16.0834 1.99967 16.0834H11.9997ZM11.4813 6.08335L8.24967 2.85085V5.66669C8.24967 5.89585 8.43634 6.08335 8.66634 6.08335H11.4813Z" fill="#323232"/>
</svg>
