<svg width="14" height="15" viewBox="0 0 14 15" fill="none" xmlns="http://www.w3.org/2000/svg">
<path d="M13.1875 6.87502V13.625C13.1875 13.9234 13.069 14.2095 12.858 14.4205C12.647 14.6315 12.3609 14.75 12.0625 14.75H1.9375C1.63913 14.75 1.35298 14.6315 1.142 14.4205C0.931026 14.2095 0.8125 13.9234 0.8125 13.625V6.87502C0.8125 6.57665 0.931026 6.2905 1.142 6.07952C1.35298 5.86854 1.63913 5.75002 1.9375 5.75002H3.625C3.77418 5.75002 3.91726 5.80928 4.02275 5.91477C4.12824 6.02026 4.1875 6.16333 4.1875 6.31252C4.1875 6.4617 4.12824 6.60477 4.02275 6.71026C3.91726 6.81575 3.77418 6.87502 3.625 6.87502H1.9375V13.625H12.0625V6.87502H10.375C10.2258 6.87502 10.0827 6.81575 9.97725 6.71026C9.87176 6.60477 9.8125 6.4617 9.8125 6.31252C9.8125 6.16333 9.87176 6.02026 9.97725 5.91477C10.0827 5.80928 10.2258 5.75002 10.375 5.75002H12.0625C12.3609 5.75002 12.647 5.86854 12.858 6.07952C13.069 6.2905 13.1875 6.57665 13.1875 6.87502ZM4.58547 3.89798L6.4375 2.04525V8.56252C6.4375 8.7117 6.49676 8.85477 6.60225 8.96026C6.70774 9.06575 6.85082 9.12502 7 9.12502C7.14918 9.12502 7.29226 9.06575 7.39775 8.96026C7.50324 8.85477 7.5625 8.7117 7.5625 8.56252V2.04525L9.41453 3.89798C9.52008 4.00353 9.66323 4.06283 9.8125 4.06283C9.96177 4.06283 10.1049 4.00353 10.2105 3.89798C10.316 3.79244 10.3753 3.64928 10.3753 3.50002C10.3753 3.35075 10.316 3.20759 10.2105 3.10205L7.39797 0.289547C7.34573 0.237247 7.28369 0.195758 7.2154 0.16745C7.14712 0.139143 7.07392 0.124573 7 0.124573C6.92608 0.124573 6.85288 0.139143 6.7846 0.16745C6.71631 0.195758 6.65427 0.237247 6.60203 0.289547L3.78953 3.10205C3.68398 3.20759 3.62469 3.35075 3.62469 3.50002C3.62469 3.64928 3.68398 3.79244 3.78953 3.89798C3.89508 4.00353 4.03823 4.06283 4.1875 4.06283C4.33677 4.06283 4.47992 4.00353 4.58547 3.89798Z" fill="#007C38"/>
</svg>
