<svg width="18" height="18" viewBox="0 0 18 18" fill="none" xmlns="http://www.w3.org/2000/svg">
<path d="M8.99818 0.665039C10.0013 0.665039 10.9629 0.842222 11.8537 1.16701L10.8588 2.16189C10.2659 2.00093 9.64209 1.91504 8.99818 1.91504C5.08519 1.91504 1.91309 5.08714 1.91309 9.00008C1.91309 12.9131 5.08519 16.0852 8.99818 16.0852C12.9112 16.0852 16.0833 12.9131 16.0833 9.00008C16.0833 8.35708 15.9976 7.73408 15.8371 7.14186L16.8321 6.14686C17.1563 7.03695 17.3333 7.99791 17.3333 9.00008C17.3333 13.6035 13.6015 17.3352 8.99818 17.3352C4.39484 17.3352 0.663086 13.6035 0.663086 9.00008C0.663086 4.39678 4.39484 0.665039 8.99818 0.665039ZM8.99818 4.00012C9.43034 4.00012 9.84968 4.05496 10.2497 4.15805L10.2498 5.46407C9.85834 5.32552 9.43701 5.25012 8.99818 5.25012C6.92709 5.25012 5.24815 6.92906 5.24815 9.00016C5.24815 11.0712 6.92709 12.7502 8.99818 12.7502C11.0692 12.7502 12.7482 11.0712 12.7482 9.00016C12.7482 8.56183 12.6729 8.14108 12.5348 7.75016H13.8406C13.9434 8.14966 13.9982 8.5685 13.9982 9.00016C13.9982 11.7616 11.7596 14.0002 8.99818 14.0002C6.23673 14.0002 3.99815 11.7616 3.99815 9.00016C3.99815 6.2387 6.23673 4.00012 8.99818 4.00012ZM10.6648 9.00016C10.6648 9.92058 9.91859 10.6668 8.99818 10.6668C8.07768 10.6668 7.33149 9.92058 7.33149 9.00016C7.33149 8.07966 8.07768 7.3335 8.99818 7.3335C9.22951 7.3335 9.44984 7.38058 9.65009 7.46583L11.0831 6.03282L11.083 3.37516C11.083 3.2094 11.1488 3.05042 11.2661 2.93321L13.3493 0.849814C13.5281 0.671064 13.7969 0.617581 14.0304 0.714322C14.264 0.811056 14.4163 1.03896 14.4163 1.29175V3.58343L16.7081 3.58347C16.9609 3.58348 17.1888 3.73576 17.2855 3.96931C17.3823 4.20286 17.3288 4.47167 17.1501 4.65042L15.0667 6.73375C14.9494 6.85096 14.7905 6.9168 14.6248 6.9168L11.9669 6.91681L10.5334 8.35033C10.618 8.55 10.6648 8.76958 10.6648 9.00016ZM14.3658 5.66681L15.1993 4.83345L13.7913 4.83342C13.4461 4.83341 13.1663 4.5536 13.1663 4.20842V2.80068L12.333 3.634L12.3331 5.61767C12.3417 5.62535 12.3501 5.6333 12.3583 5.64152C12.3665 5.64978 12.3745 5.65821 12.3822 5.66681H14.3658Z" fill="#323232"/>
</svg>
