<svg width="18" height="16" viewBox="0 0 18 16" fill="none" xmlns="http://www.w3.org/2000/svg">
<path d="M9.20119 0.470703C9.00586 0.470703 8.83144 0.560303 8.71686 0.700637L8.66928 0.736653C6.88228 0.194928 4.86056 0.626195 3.44726 2.03045C2.19013 3.27954 1.7078 5.00692 2.00025 6.623L1.98773 6.63534L1.19011 7.42792C0.496526 8.117 0.496526 9.23434 1.19011 9.9235C1.59758 10.3283 2.15378 10.4953 2.68396 10.4245C2.76208 10.7131 2.91511 10.9858 3.14303 11.2123C3.45282 11.5201 3.84857 11.6903 4.2535 11.7233C4.2865 12.1257 4.45793 12.519 4.76778 12.8268C5.09188 13.1488 5.51006 13.3204 5.93439 13.3415C5.95567 13.763 6.12832 14.1784 6.45234 14.5004C7.08591 15.1299 8.07911 15.1843 8.77486 14.6638L9.09694 14.9838C9.79394 15.6763 10.9239 15.6763 11.6209 14.9838C11.9295 14.6771 12.1014 14.2861 12.1367 13.8855C12.5391 13.8513 12.932 13.6812 13.2401 13.375C13.549 13.0681 13.7203 12.6766 13.7542 12.2757C14.1514 12.2386 14.5384 12.0689 14.8426 11.7665C15.0811 11.5296 15.2376 11.2421 15.3121 10.9388C15.8344 11.0007 16.3789 10.8326 16.7797 10.4344C17.4733 9.74525 17.4733 8.62792 16.7797 7.93884L16.0851 7.24867L16.2279 6.69325C16.5381 5.4855 16.3821 4.20621 15.7908 3.1075C14.9179 1.48543 13.2185 0.474878 11.3713 0.474878H10.0324C9.97528 0.472103 9.91794 0.470703 9.86028 0.470703H9.20119ZM11.638 4.59164L14.5244 7.45959L14.5277 7.463L14.5388 7.47434L15.8929 8.81984C16.0969 9.02242 16.0969 9.35084 15.8929 9.55334C15.6891 9.75592 15.3586 9.75592 15.1547 9.55334L13.8005 8.20784C13.5557 7.96459 13.1587 7.96459 12.9139 8.20784L12.9003 8.22134C12.6554 8.46459 12.6554 8.85909 12.9003 9.10234L13.9559 10.1513C14.1599 10.354 14.1599 10.6828 13.9559 10.8855C13.7699 11.0703 13.4776 11.0869 13.2734 10.9343C13.0229 10.7469 12.6715 10.7723 12.4509 10.9938C12.2303 11.2153 12.2082 11.5646 12.3993 11.8116C12.5563 12.0147 12.5407 12.3079 12.3534 12.4939C12.1646 12.6816 11.8664 12.6958 11.6618 12.5358C11.4129 12.341 11.0568 12.3614 10.832 12.5833C10.6072 12.8053 10.5844 13.1589 10.7789 13.4075C10.9403 13.6138 10.925 13.9131 10.7341 14.1028C10.5269 14.3087 10.1909 14.3087 9.98369 14.1028L9.67394 13.795L9.76161 13.7078C10.4552 13.0187 10.4552 11.9014 9.76161 11.2123C9.43753 10.8903 9.01936 10.7187 8.59503 10.6976C8.57378 10.2761 8.40111 9.86067 8.07711 9.53875C7.76728 9.23092 7.37153 9.06059 6.96663 9.02775C6.93363 8.62534 6.76219 8.232 6.45234 7.92409C6.04487 7.51925 5.48867 7.35225 4.95848 7.42309C4.88036 7.1345 4.72734 6.86184 4.49942 6.63534C4.13997 6.2782 3.66478 6.10615 3.19381 6.11919C3.07148 4.97524 3.45153 3.78829 4.33398 2.91149C5.15416 2.09655 6.244 1.71285 7.31812 1.76035L6.07024 2.70579C5.21702 3.35223 5.05265 4.56661 5.70333 5.4166C6.35254 6.26467 7.56769 6.42917 8.41894 5.78416L9.99294 4.59164H11.638ZM6.82511 3.70213L9.44036 1.7207H9.86028C9.90153 1.7207 9.94244 1.72181 9.98303 1.72399C9.99411 1.72458 10.0053 1.72488 10.0164 1.72488H11.3713C12.7614 1.72488 14.0364 2.48537 14.6901 3.69988C15.1024 4.46594 15.2317 5.3486 15.0599 6.19586L12.3832 3.53215C12.2654 3.41039 12.1033 3.34164 11.9339 3.34164H9.78294C9.64661 3.34164 9.51411 3.38619 9.40544 3.46848L7.66411 4.78783C7.36111 5.01737 6.92694 4.9586 6.69589 4.65679C6.46633 4.3569 6.52408 3.93019 6.82511 3.70213ZM4.02974 10.3312C3.88983 10.1922 3.84593 9.99384 3.89808 9.81767C3.92192 9.73709 3.9658 9.66117 4.02974 9.59767L4.82738 8.80517C5.03123 8.60259 5.36176 8.60259 5.56563 8.80517C5.76716 9.00542 5.76946 9.32867 5.57253 9.53167L5.56541 9.53875L4.76778 10.3313L4.76091 10.3381C4.69844 10.3979 4.62468 10.4392 4.5466 10.462C4.36925 10.5138 4.16967 10.4703 4.02974 10.3312ZM3.62034 7.52417C3.68325 7.58925 3.72573 7.66667 3.74777 7.74842C3.79445 7.92159 3.74944 8.11409 3.6127 8.24992L2.81508 9.04242C2.61121 9.245 2.28068 9.245 2.07683 9.04242C1.87296 8.83992 1.87296 8.5115 2.07683 8.30892L2.87445 7.51642C3.07832 7.31384 3.40884 7.31384 3.6127 7.51642L3.62034 7.52417ZM8.07728 13.6193C8.01328 13.683 7.93669 13.7267 7.85544 13.7503C7.67828 13.8019 7.47886 13.7583 7.33903 13.6193C7.19925 13.4804 7.15532 13.2823 7.20727 13.1063C7.23107 13.0255 7.27499 12.9495 7.33903 12.8858L8.13669 12.0933C8.34053 11.8908 8.67111 11.8908 8.87494 12.0933C9.07878 12.2958 9.07878 12.6243 8.87494 12.8268L8.07728 13.6193ZM6.39275 11.9458C6.32886 12.0093 6.25253 12.0529 6.17155 12.0766C5.99415 12.1285 5.79447 12.0849 5.6545 11.9458C5.51453 11.8068 5.47066 11.6083 5.5229 11.4321C5.54588 11.3545 5.58744 11.2813 5.6476 11.2193L5.65471 11.2123L6.45234 10.4198L6.45921 10.4128C6.66358 10.2173 6.98886 10.2195 7.19038 10.4198C7.39428 10.6223 7.39428 10.9508 7.19038 11.1533L6.39275 11.9458Z" fill="#323232"/>
</svg>
