<svg width="18" height="18" viewBox="0 0 18 18" fill="none" xmlns="http://www.w3.org/2000/svg">
<path d="M12.15 2.1143C11.7305 1.95929 11.2695 1.95929 10.85 2.1143L7.26112 3.44063C7.17932 3.47086 7.125 3.54883 7.125 3.63604V5.96371C6.71099 5.89752 6.289 5.89752 5.875 5.96371V3.63604C5.875 3.02559 6.25521 2.47974 6.82781 2.26813L10.4167 0.941809C11.1158 0.683459 11.8842 0.683459 12.5833 0.941809L16.1722 2.26813C16.7447 2.47974 17.125 3.02559 17.125 3.63604V12.5278C17.125 13.1382 16.7447 13.684 16.1722 13.8957L12.8243 15.1328C12.9115 14.8895 12.9583 14.6289 12.9583 14.3604V13.7508L15.7389 12.7232C15.8207 12.6929 15.875 12.6149 15.875 12.5278V3.63604C15.875 3.54883 15.8207 3.47086 15.7389 3.44063L12.15 2.1143ZM8.80767 5.38922C8.48142 5.27645 8.30842 4.92057 8.42117 4.59433C8.53392 4.26809 8.88983 4.09503 9.21608 4.2078L11.4315 4.9736C11.4757 4.98886 11.5237 4.98884 11.5677 4.97355L13.7765 4.20822C14.1027 4.0952 14.4587 4.26798 14.5717 4.59414C14.6847 4.92029 14.5119 5.27631 14.1858 5.38932L11.9771 6.15465C11.6681 6.2617 11.3322 6.26184 11.0232 6.15502L8.80767 5.38922ZM3.80767 11.2226C3.48143 11.1098 3.30838 10.7539 3.42115 10.4277C3.53392 10.1014 3.8898 9.92833 4.21604 10.0412L6.49966 10.8305L8.7765 10.0416C9.10267 9.9285 9.45867 10.1013 9.57167 10.4275C9.68467 10.7536 9.51192 11.1097 9.18575 11.2227L7.12491 11.9368V14.1862C7.12491 14.5313 6.84508 14.8112 6.49991 14.8112C6.15473 14.8112 5.87491 14.5313 5.87491 14.1862V11.9371L3.80767 11.2226ZM7.58325 6.94116C6.88419 6.68281 6.11581 6.68281 5.41673 6.94116L1.82781 8.2675C1.25521 8.47908 0.875 9.02492 0.875 9.63542V14.3604C0.875 14.9708 1.25521 15.5168 1.82781 15.7283L5.41673 17.0547C6.11581 17.313 6.88419 17.313 7.58325 17.0547L11.1722 15.7283C11.7448 15.5168 12.125 14.9708 12.125 14.3604V9.63542C12.125 9.02492 11.7448 8.47908 11.1722 8.2675L7.58325 6.94116ZM5.85004 8.11367C6.26948 7.95867 6.73052 7.95867 7.14996 8.11367L10.7389 9.44C10.8207 9.47017 10.875 9.54817 10.875 9.63542V14.3604C10.875 14.4476 10.8207 14.5256 10.7389 14.5558L7.14996 15.8822C6.73052 16.0372 6.26948 16.0372 5.85004 15.8822L2.26112 14.5558C2.17932 14.5256 2.125 14.4476 2.125 14.3604V9.63542C2.125 9.54817 2.17932 9.47017 2.26112 9.44L5.85004 8.11367Z" fill="#323232"/>
</svg>
