<svg width="14" height="18" viewBox="0 0 14 18" fill="none" xmlns="http://www.w3.org/2000/svg">
<path d="M2.00065 0.666016C1.08018 0.666016 0.333984 1.41221 0.333984 2.33268V15.666C0.333984 16.5865 1.08018 17.3327 2.00065 17.3327H12.0007C12.9212 17.3327 13.6673 16.5865 13.6673 15.666V7.18916C13.6673 6.74712 13.4917 6.32321 13.1792 6.01064L8.32265 1.15417C8.01015 0.841607 7.58623 0.666016 7.14415 0.666016H2.00065ZM1.58398 2.33268C1.58398 2.10257 1.77053 1.91602 2.00065 1.91602H7.00065V5.66602C7.00065 6.58649 7.74682 7.33268 8.66732 7.33268H12.4173V15.666C12.4173 15.8961 12.2307 16.0827 12.0007 16.0827H2.00065C1.77053 16.0827 1.58398 15.8961 1.58398 15.666V2.33268ZM11.4834 6.08268H8.66732C8.43723 6.08268 8.25065 5.89613 8.25065 5.66602V2.8499L11.4834 6.08268Z" fill="#323232"/>
</svg>
