<svg width="14" height="18" viewBox="0 0 14 18" fill="none" xmlns="http://www.w3.org/2000/svg">
<path d="M2.20898 0.666016C1.17345 0.666016 0.333984 1.50548 0.333984 2.54102V15.4577C0.333984 16.4932 1.17345 17.3327 2.20898 17.3327H11.7923C12.8278 17.3327 13.6673 16.4932 13.6673 15.4577V2.54102C13.6673 1.50548 12.8278 0.666016 11.7923 0.666016H2.20898ZM1.58398 2.54102C1.58398 2.19584 1.86381 1.91602 2.20898 1.91602H11.7923C12.1375 1.91602 12.4173 2.19584 12.4173 2.54102V15.4577C12.4173 15.8028 12.1375 16.0827 11.7923 16.0827H2.20898C1.86381 16.0827 1.58398 15.8028 1.58398 15.4577V2.54102ZM3.45898 4.41602C3.11381 4.41602 2.83398 4.69584 2.83398 5.04102C2.83398 5.38619 3.11381 5.66602 3.45898 5.66602H10.5423C10.8875 5.66602 11.1673 5.38619 11.1673 5.04102C11.1673 4.69584 10.8875 4.41602 10.5423 4.41602H3.45898ZM2.83398 12.541C2.83398 12.1958 3.11381 11.916 3.45898 11.916H10.5423C10.8875 11.916 11.1673 12.1958 11.1673 12.541C11.1673 12.8862 10.8875 13.166 10.5423 13.166H3.45898C3.11381 13.166 2.83398 12.8862 2.83398 12.541ZM3.45898 8.16602C3.11381 8.16602 2.83398 8.44585 2.83398 8.79102C2.83398 9.13618 3.11381 9.41602 3.45898 9.41602H10.5423C10.8875 9.41602 11.1673 9.13618 11.1673 8.79102C11.1673 8.44585 10.8875 8.16602 10.5423 8.16602H3.45898Z" fill="#323232"/>
</svg>
