<svg width="18" height="18" viewBox="0 0 18 18" fill="none" xmlns="http://www.w3.org/2000/svg">
<path d="M8.99915 0.666016C10.0022 0.666016 10.9639 0.843199 11.8547 1.16799L10.8598 2.16287C10.2669 2.00191 9.64307 1.91602 8.99915 1.91602C5.08616 1.91602 1.91406 5.08812 1.91406 9.00106C1.91406 12.9141 5.08616 16.0861 8.99915 16.0861C12.9122 16.0861 16.0842 12.9141 16.0842 9.00106C16.0842 8.35806 15.9986 7.73506 15.8381 7.14283L16.8331 6.14783C17.1573 7.03792 17.3342 7.99889 17.3342 9.00106C17.3342 13.6045 13.6025 17.3361 8.99915 17.3361C4.39581 17.3361 0.664062 13.6045 0.664062 9.00106C0.664062 4.39776 4.39581 0.666016 8.99915 0.666016ZM8.99915 4.0011C9.43132 4.0011 9.85065 4.05593 10.2507 4.15902L10.2507 5.46505C9.85932 5.3265 9.43799 5.2511 8.99915 5.2511C6.92806 5.2511 5.24913 6.93003 5.24913 9.00114C5.24913 11.0721 6.92806 12.7511 8.99915 12.7511C11.0702 12.7511 12.7492 11.0721 12.7492 9.00114C12.7492 8.56281 12.6739 8.14206 12.5357 7.75114H13.8416C13.9444 8.15064 13.9992 8.56947 13.9992 9.00114C13.9992 11.7626 11.7606 14.0011 8.99915 14.0011C6.2377 14.0011 3.99913 11.7626 3.99913 9.00114C3.99913 6.23967 6.2377 4.0011 8.99915 4.0011ZM10.6658 9.00114C10.6658 9.92156 9.91957 10.6678 8.99915 10.6678C8.07865 10.6678 7.33246 9.92156 7.33246 9.00114C7.33246 8.08064 8.07865 7.33447 8.99915 7.33447C9.23049 7.33447 9.45082 7.38156 9.65107 7.46681L11.0841 6.0338L11.084 3.37613C11.084 3.21037 11.1498 3.0514 11.2671 2.93418L13.3503 0.850791C13.5291 0.672041 13.7979 0.618557 14.0314 0.715299C14.265 0.812032 14.4172 1.03993 14.4172 1.29272V3.58441L16.7091 3.58445C16.9619 3.58446 17.1898 3.73673 17.2865 3.97028C17.3832 4.20383 17.3298 4.47265 17.1511 4.6514L15.0677 6.73472C14.9504 6.85193 14.7915 6.91777 14.6257 6.91777L11.9679 6.91778L10.5344 8.35131C10.619 8.55097 10.6658 8.77056 10.6658 9.00114ZM14.3668 5.66778L15.2002 4.83442L13.7922 4.8344C13.4471 4.83439 13.1672 4.55457 13.1672 4.2094V2.80166L12.334 3.63497L12.3341 5.61865C12.3427 5.62632 12.3511 5.63427 12.3592 5.6425C12.3675 5.65076 12.3755 5.65919 12.3832 5.66778H14.3668Z" fill="#323232"/>
</svg>
