<svg width="16" height="16" viewBox="0 0 16 16" fill="none" xmlns="http://www.w3.org/2000/svg">
<path d="M10.7083 8.20833C10.7083 7.40292 10.0554 6.75 9.25 6.75H4.25C3.44458 6.75 2.79167 7.40292 2.79167 8.20833V8.625C2.79167 9.52408 3.22113 10.0044 3.93836 10.4587C4.64597 10.907 5.62712 11.125 6.75 11.125C8.074 11.125 9.06242 10.9096 9.72442 10.4544C10.402 9.98858 10.7083 9.501 10.7083 8.625V8.20833ZM4.04167 8.20833C4.04167 8.09325 4.13494 8 4.25 8H9.25C9.36508 8 9.45833 8.09325 9.45833 8.20833V8.625C9.45833 8.847 9.4295 8.89883 9.37325 9C9.35908 9.02542 9.34317 9.05408 9.3255 9.08933C9.23925 9.26183 9.1055 9.40383 8.9065 9.51892C8.49608 9.75617 7.81583 9.875 6.75 9.875C5.90097 9.875 5.21142 9.7585 4.74151 9.51442C4.50928 9.39375 4.33638 9.24492 4.22113 9.0685C4.19436 9.02758 4.17028 8.99592 4.14912 8.96808C4.07981 8.87683 4.04167 8.82667 4.04167 8.625V8.20833ZM8.83333 4.25C8.83333 5.40059 7.90058 6.33333 6.75 6.33333C5.59941 6.33333 4.66667 5.40059 4.66667 4.25C4.66667 3.09941 5.59941 2.16667 6.75 2.16667C7.90058 2.16667 8.83333 3.09941 8.83333 4.25ZM7.58333 4.25C7.58333 3.78977 7.21025 3.41667 6.75 3.41667C6.28977 3.41667 5.91667 3.78977 5.91667 4.25C5.91667 4.71023 6.28977 5.08333 6.75 5.08333C7.21025 5.08333 7.58333 4.71023 7.58333 4.25ZM0.5 3.20833C0.5 1.71256 1.71256 0.5 3.20833 0.5H10.2917C11.7874 0.5 13 1.71256 13 3.20833V10.2917C13 11.7874 11.7874 13 10.2917 13H3.20833C1.71256 13 0.5 11.7874 0.5 10.2917V3.20833ZM3.20833 1.75C2.40292 1.75 1.75 2.40292 1.75 3.20833V10.2917C1.75 11.0971 2.40292 11.75 3.20833 11.75H10.2917C11.0971 11.75 11.75 11.0971 11.75 10.2917V3.20833C11.75 2.40292 11.0971 1.75 10.2917 1.75H3.20833ZM5.29166 15.0833C4.33282 15.0833 3.49036 14.585 3.00907 13.8333H10.7083C12.4342 13.8333 13.8333 12.4342 13.8333 10.7083V3.00905C14.5851 3.49033 15.0833 4.33279 15.0833 5.29163V10.7083C15.0833 13.1245 13.1246 15.0833 10.7083 15.0833H5.29166Z" fill="#323232"/>
</svg>
