<svg width="16" height="17" viewBox="0 0 16 17" fill="none" xmlns="http://www.w3.org/2000/svg">
<path d="M8.00004 0.663391C11.375 0.663391 14.1306 3.32568 14.2465 6.70427L14.25 6.91339V10.3276L15.4 12.9576C15.4576 13.0891 15.4873 13.2312 15.4873 13.3749C15.4873 13.9501 15.021 14.4166 14.4456 14.4166L10.5 14.4178C10.5 15.7985 9.38079 16.9178 8.00004 16.9178C6.66863 16.9178 5.58034 15.877 5.50429 14.5646L5.49968 14.4159L1.56244 14.4166C1.41966 14.4166 1.2784 14.3871 1.14744 14.3303C0.61977 14.1011 0.377811 13.4876 0.607011 12.9599L1.75005 10.3283V6.91331C1.75055 3.45098 4.54346 0.663391 8.00004 0.663391ZM9.24971 14.4159L6.75004 14.4178C6.75004 15.1081 7.30971 15.6678 8.00004 15.6678C8.64979 15.6678 9.18379 15.1721 9.2443 14.5381L9.24971 14.4159ZM8.00004 1.91339C5.23325 1.91339 3.00045 4.14194 3.00005 6.91339V10.5881L1.88007 13.1666H14.1271L13 10.5889L13.0001 6.92411L12.997 6.73644C12.9045 4.04187 10.7014 1.91339 8.00004 1.91339Z" fill="#323232"/>
</svg>
