<svg width="16" height="18" viewBox="0 0 16 18" fill="none" xmlns="http://www.w3.org/2000/svg">
<path d="M7.81692 0.433051C7.57283 0.188976 7.17708 0.188984 6.93308 0.433068C6.689 0.677151 6.689 1.07288 6.93308 1.31695L7.94967 2.3335C3.83069 2.36057 0.5 5.70799 0.5 9.83333C0.5 13.9755 3.85787 17.3333 8 17.3333C11.9118 17.3333 15.1236 14.339 15.4692 10.5168C15.5003 10.1731 15.2468 9.86917 14.9031 9.83808C14.5593 9.807 14.2554 10.0605 14.2243 10.4043C13.9363 13.5882 11.2592 16.0833 8 16.0833C4.54822 16.0833 1.75 13.2851 1.75 9.83333C1.75 6.39852 4.52077 3.61086 7.94917 3.58353L6.93308 4.59963C6.689 4.8437 6.689 5.23943 6.93308 5.48351C7.17717 5.72758 7.57283 5.72758 7.81692 5.48351L9.90025 3.40018C10.0175 3.28296 10.0833 3.12398 10.0833 2.95823C10.0833 2.79246 10.0175 2.63349 9.90025 2.51628L7.81692 0.433051ZM11.1531 7.51642C11.3972 7.7605 11.3972 8.15617 11.1531 8.40025L7.40025 12.1532C7.28308 12.2703 7.12408 12.3362 6.95833 12.3362C6.79258 12.3363 6.63358 12.2703 6.51642 12.1532L4.84973 10.4865C4.60565 10.2424 4.60565 9.84667 4.84973 9.60258C5.0938 9.3585 5.48953 9.3585 5.73361 9.60258L6.95833 10.8273L10.2692 7.51642C10.5132 7.27232 10.909 7.27231 11.1531 7.51642Z" fill="#323232"/>
</svg>
