<svg width="16" height="17" viewBox="0 0 16 17" fill="none" xmlns="http://www.w3.org/2000/svg">
<path d="M8.83333 4.20796C8.83333 4.6682 8.46025 5.0413 8 5.0413C7.53975 5.0413 7.16667 4.6682 7.16667 4.20796C7.16667 3.74772 7.53975 3.37463 8 3.37463C8.46025 3.37463 8.83333 3.74772 8.83333 4.20796ZM8.85967 0.936556C8.3475 0.562815 7.6525 0.562815 7.14033 0.936556L0.955475 5.44985C0.141242 6.04401 0.561517 7.33293 1.5695 7.33293H1.75V12.1662C1.00798 12.5455 0.5 13.3174 0.5 14.2079V15.4579C0.5 15.8031 0.779825 16.0829 1.125 16.0829H14.875C15.2202 16.0829 15.5 15.8031 15.5 15.4579V14.2079C15.5 13.3174 14.992 12.5455 14.25 12.1662V7.33293H14.4305C15.4385 7.33293 15.8587 6.04402 15.0445 5.44985L8.85967 0.936556ZM7.87717 1.94629C7.95033 1.8929 8.04967 1.8929 8.12283 1.94629L13.7916 6.08296H2.20842L7.87717 1.94629ZM13 7.33293V11.9163H11.3333V7.33293H13ZM10.0833 7.33293V11.9163H8.625V7.33293H10.0833ZM7.375 7.33293V11.9163H5.91667V7.33293H7.375ZM2.79167 13.1663H13.2083C13.7837 13.1663 14.25 13.6327 14.25 14.2079V14.8329H1.75V14.2079C1.75 13.6327 2.21637 13.1663 2.79167 13.1663ZM3 11.9163V7.33293H4.66667V11.9163H3Z" fill="#323232"/>
</svg>
