<svg width="17" height="18" viewBox="0 0 17 18" fill="none" xmlns="http://www.w3.org/2000/svg">
<path d="M8.88133 5.19312C9.69491 4.37953 11.014 4.37953 11.8276 5.19312C12.6412 6.00671 12.6412 7.32581 11.8276 8.1394C11.014 8.95298 9.69491 8.95298 8.88133 8.1394C8.06774 7.32581 8.06774 6.00671 8.88133 5.19312ZM10.9437 6.07701C10.6182 5.75157 10.0907 5.75156 9.76516 6.07701C9.43974 6.40244 9.43974 6.93008 9.76516 7.25551C10.0907 7.58098 10.6182 7.58098 10.9437 7.25551C11.2692 6.93008 11.2692 6.40244 10.9437 6.07701ZM15.9242 2.60261C15.7002 1.88195 15.1357 1.31775 14.415 1.09406L13.8632 0.922839C11.8687 0.303814 9.69533 0.840831 8.21849 2.31759L7.38866 3.14749C6.24718 2.29029 4.61963 2.38099 3.58104 3.41959L2.54559 4.45503C2.30151 4.69911 2.30151 5.09484 2.54559 5.33891L3.8714 6.66472L3.72156 6.81456C3.15204 7.38406 3.15204 8.30748 3.72156 8.87698L4.13435 9.28973L2.97139 9.95306C2.80209 10.0496 2.68754 10.2196 2.66159 10.4127C2.63564 10.6059 2.70129 10.8001 2.83909 10.9379L6.08001 14.1788C6.21771 14.3165 6.41174 14.3821 6.60474 14.3564C6.79783 14.3306 6.96774 14.2162 7.06449 14.0472L7.72941 12.8848L8.14374 13.2991C8.71324 13.8686 9.63658 13.8686 10.2061 13.2991L10.3534 13.1518L11.6781 14.4765C11.9222 14.7205 12.3179 14.7205 12.562 14.4765L13.5974 13.441C14.6356 12.4028 14.7267 10.7761 13.8705 9.63473L14.7021 8.80306C16.1794 7.32576 16.7162 5.15133 16.0962 3.15621L15.9242 2.60261ZM14.0445 2.28789C14.3721 2.38956 14.6287 2.64602 14.7305 2.9736L14.9025 3.52719C15.3847 5.07896 14.9672 6.77018 13.8182 7.91923L9.32224 12.4152C9.24083 12.4966 9.10891 12.4966 9.02758 12.4152L4.60544 7.99306C4.52409 7.91173 4.52409 7.77981 4.60544 7.69848L9.10241 3.20147C10.251 2.05289 11.9414 1.63521 13.4927 2.11666L14.0445 2.28789ZM12.9704 10.5348C13.3475 11.1729 13.2619 12.0087 12.7135 12.5571L12.12 13.1506L11.2373 12.2679L12.9704 10.5348ZM4.46492 4.30347C5.01368 3.75471 5.85037 3.66937 6.48866 4.04745L4.75529 5.78084L3.87142 4.89697L4.46492 4.30347ZM6.81333 11.9687L6.38558 12.7166L4.30207 10.6331L5.05072 10.2061L6.81333 11.9687ZM3.57522 14.3293C3.81929 14.0852 3.81929 13.6895 3.57522 13.4454C3.33114 13.2013 2.93541 13.2013 2.69134 13.4454L0.628935 15.5078C0.38486 15.7519 0.38486 16.1476 0.628935 16.3917C0.873019 16.6358 1.26874 16.6358 1.51282 16.3917L3.57522 14.3293ZM1.95474 11.825C2.19881 12.0691 2.19881 12.4648 1.95474 12.7089L1.07085 13.5927C0.826769 13.8368 0.431044 13.8368 0.186969 13.5927C-0.0571146 13.3486 -0.0571146 12.9529 0.186969 12.7089L1.07085 11.825C1.31493 11.5809 1.71065 11.5809 1.95474 11.825ZM5.19398 15.9515C5.43806 15.7074 5.43806 15.3117 5.19399 15.0676C4.94992 14.8236 4.55419 14.8236 4.3101 15.0676L3.42794 15.9497C3.18385 16.1938 3.18385 16.5896 3.42793 16.8336C3.672 17.0777 4.06773 17.0777 4.31181 16.8336L5.19398 15.9515Z" fill="#323232"/>
</svg>
