<svg width="16" height="16" viewBox="0 0 16 16" fill="none" xmlns="http://www.w3.org/2000/svg">
<path d="M8.00091 6.00292C9.47364 6.00292 10.6676 7.19684 10.6676 8.66957C10.6676 10.1424 9.47364 11.3362 8.00091 11.3362C6.52813 11.3362 5.33422 10.1424 5.33422 8.66957C5.33422 7.19684 6.52813 6.00292 8.00091 6.00292ZM8.00091 7.0029C7.08044 7.0029 6.33422 7.7491 6.33422 8.66957C6.33422 9.59004 7.08044 10.3362 8.00091 10.3362C8.92137 10.3362 9.66757 9.59004 9.66757 8.66957C9.66757 7.7491 8.92137 7.0029 8.00091 7.0029ZM8.00091 3.6665C11.0766 3.6665 13.7316 5.76651 14.4683 8.70944C14.5354 8.9773 14.3726 9.24884 14.1047 9.3159C13.8368 9.3829 13.5653 9.22017 13.4982 8.95224C12.8723 6.45181 10.6151 4.6665 8.00091 4.6665C5.38551 4.6665 3.12762 6.45334 2.50279 8.9553C2.43589 9.22317 2.16446 9.3861 1.89655 9.31924C1.62863 9.2523 1.46569 8.9809 1.53259 8.71297C2.26799 5.76832 4.92388 3.6665 8.00091 3.6665Z" fill="#212121"/>
</svg>
