<svg width="14" height="18" viewBox="0 0 14 18" fill="none" xmlns="http://www.w3.org/2000/svg">
<path d="M4.29134 8.58332C3.94617 8.58332 3.66634 8.86316 3.66634 9.20832C3.66634 9.55349 3.94617 9.83332 4.29134 9.83332H9.70801C10.0532 9.83332 10.333 9.55349 10.333 9.20832C10.333 8.86316 10.0532 8.58332 9.70801 8.58332H4.29134ZM4.29134 10.875C3.94617 10.875 3.66634 11.1548 3.66634 11.5C3.66634 11.8452 3.94617 12.125 4.29134 12.125H9.70801C10.0532 12.125 10.333 11.8452 10.333 11.5C10.333 11.1548 10.0532 10.875 9.70801 10.875H4.29134ZM4.29134 13.1667C3.94617 13.1667 3.66634 13.4465 3.66634 13.7917C3.66634 14.1368 3.94617 14.4167 4.29134 14.4167H9.70801C10.0532 14.4167 10.333 14.1368 10.333 13.7917C10.333 13.4465 10.0532 13.1667 9.70801 13.1667H4.29134ZM8.32051 1.15499L13.178 6.01166C13.4905 6.32416 13.6663 6.74832 13.6663 7.18999V15.6667C13.6663 16.5867 12.9197 17.3333 11.9997 17.3333H1.99967C1.07967 17.3333 0.333008 16.5867 0.333008 15.6667V2.33332C0.333008 1.41332 1.07967 0.666656 1.99967 0.666656H7.14301C7.16626 0.666656 7.18892 0.669748 7.21151 0.672832C7.22784 0.675057 7.24409 0.677273 7.26051 0.678323C7.43967 0.690823 7.61634 0.72499 7.78051 0.793323C7.82834 0.813723 7.87367 0.839965 7.91884 0.866098C7.93276 0.874132 7.94659 0.882148 7.96051 0.88999C7.97342 0.897048 7.98676 0.90354 8.00009 0.910048C8.02309 0.921223 8.04609 0.93244 8.06717 0.946656C8.13217 0.990823 8.19051 1.04332 8.24967 1.09666C8.25926 1.10516 8.26951 1.11305 8.27992 1.12099C8.29392 1.13172 8.30801 1.14253 8.32051 1.15499ZM11.9997 16.0833C12.2297 16.0833 12.4163 15.8958 12.4163 15.6667V7.33332H8.66634C7.74634 7.33332 6.99967 6.58666 6.99967 5.66666V1.91666H1.99967C1.76967 1.91666 1.58301 2.10416 1.58301 2.33332V15.6667C1.58301 15.8958 1.76967 16.0833 1.99967 16.0833H11.9997ZM11.4813 6.08332L8.24967 2.85082V5.66666C8.24967 5.89582 8.43634 6.08332 8.66634 6.08332H11.4813Z" fill="#323232"/>
</svg>
