<svg width="16" height="18" viewBox="0 0 16 18" fill="none" xmlns="http://www.w3.org/2000/svg">
<path d="M8.00968 0.875C8.62135 0.88205 9.2306 0.952717 9.8276 1.08587C10.0882 1.14399 10.2831 1.36126 10.3127 1.62663L10.4545 2.89901C10.5188 3.48322 11.012 3.9257 11.6 3.92632C11.7581 3.92657 11.9144 3.89365 12.0605 3.82902L13.2277 3.3163C13.4704 3.20966 13.7541 3.2678 13.9353 3.46135C14.7788 4.3622 15.4069 5.44263 15.7726 6.62132C15.8514 6.87548 15.7607 7.15169 15.5465 7.30958L14.5119 8.07217C14.2168 8.289 14.0425 8.63333 14.0425 8.99958C14.0425 9.36575 14.2168 9.71008 14.5126 9.92742L15.548 10.6903C15.7623 10.8481 15.8531 11.1243 15.7743 11.3786C15.4088 12.5571 14.7809 13.6374 13.9379 14.5384C13.7569 14.7319 13.4735 14.7902 13.2308 14.6838L12.0588 14.1704C11.7235 14.0237 11.3385 14.0452 11.0216 14.2283C10.7048 14.4114 10.4939 14.7343 10.4537 15.0981L10.3128 16.3703C10.2837 16.6327 10.093 16.8485 9.83618 16.9096C8.62918 17.1968 7.3716 17.1968 6.16454 16.9096C5.90777 16.8485 5.71705 16.6327 5.688 16.3703L5.54731 15.1C5.50599 14.7369 5.2948 14.415 4.9782 14.2325C4.6616 14.05 4.27718 14.0286 3.94301 14.1745L2.77082 14.688C2.52803 14.7944 2.24454 14.7361 2.0635 14.5424C1.22003 13.6404 0.592171 12.5588 0.227179 11.379C0.148563 11.1249 0.239396 10.8488 0.453554 10.6911L1.48966 9.92775C1.78478 9.71092 1.95907 9.36658 1.95907 9.00042C1.95907 8.63417 1.78478 8.28983 1.48927 8.07275L0.453813 7.31071C0.239346 7.15287 0.148429 6.87648 0.227321 6.62215C0.592946 5.44346 1.22113 4.36303 2.06462 3.46218C2.24584 3.26863 2.52946 3.21049 2.77221 3.31713L3.9392 3.82977C4.27498 3.97713 4.66101 3.95487 4.97932 3.76891C5.29625 3.58508 5.50725 3.26185 5.54799 2.89803L5.68971 1.62663C5.71931 1.36112 5.9144 1.14378 6.17518 1.08578C6.77293 0.95285 7.38285 0.882208 8.00968 0.875ZM8.00985 2.12492C7.63143 2.12937 7.25418 2.16202 6.88101 2.22252L6.79026 3.03682C6.70543 3.79473 6.2662 4.46752 5.6082 4.84919C4.94615 5.23597 4.13898 5.28252 3.43666 4.97431L2.68809 4.64547C2.21148 5.22394 1.83213 5.87612 1.56495 6.5764L2.22978 7.06566C2.84545 7.518 3.20907 8.23642 3.20907 9.00042C3.20907 9.76433 2.84545 10.4827 2.23043 10.9346L1.56455 11.4252C1.8315 12.1267 2.21091 12.7801 2.68785 13.3597L3.44212 13.0293C4.14054 12.7243 4.94221 12.7689 5.60245 13.1495C6.26269 13.5301 6.7031 14.2014 6.78951 14.9605L6.88035 15.7804C7.62168 15.9065 8.3791 15.9065 9.12043 15.7804L9.21126 14.9606C9.29526 14.2017 9.73518 13.5281 10.3962 13.1461C11.0572 12.764 11.8605 12.7192 12.5602 13.0254L13.3138 13.3556C13.7903 12.7769 14.1696 12.1246 14.4368 11.4242L13.7718 10.9342C13.1561 10.4819 12.7925 9.7635 12.7925 8.99958C12.7925 8.23558 13.1561 7.51717 13.771 7.06539L14.4351 6.57591C14.1679 5.87551 13.7885 5.2232 13.3118 4.64463L12.5648 4.97281C12.2603 5.10751 11.931 5.17683 11.5984 5.17632C10.3737 5.17503 9.34576 4.25296 9.2121 3.03653L9.12135 2.22225C8.7501 2.16183 8.37668 2.12927 8.00985 2.12492ZM7.99926 5.87496C9.72518 5.87496 11.1243 7.27407 11.1243 9C11.1243 10.7258 9.72518 12.125 7.99926 12.125C6.27337 12.125 4.87426 10.7258 4.87426 9C4.87426 7.27407 6.27337 5.87496 7.99926 5.87496ZM7.99926 7.12496C6.96376 7.12496 6.12426 7.96442 6.12426 9C6.12426 10.0355 6.96376 10.875 7.99926 10.875C9.03476 10.875 9.87426 10.0355 9.87426 9C9.87426 7.96442 9.03476 7.12496 7.99926 7.12496Z" fill="#323232"/>
</svg>
