<svg width="18" height="15" viewBox="0 0 18 15" fill="none" xmlns="http://www.w3.org/2000/svg">
<path d="M3.58366 3.66668C3.58366 2.51609 4.5164 1.58334 5.66699 1.58334C6.81758 1.58334 7.75033 2.51609 7.75033 3.66668C7.75033 4.81727 6.81758 5.75001 5.66699 5.75001C4.5164 5.75001 3.58366 4.81727 3.58366 3.66668ZM5.66699 0.333344C3.82604 0.333344 2.33366 1.82573 2.33366 3.66668C2.33366 5.50759 3.82604 7.00001 5.66699 7.00001C7.50791 7.00001 9.00033 5.50759 9.00033 3.66668C9.00033 1.82573 7.50791 0.333344 5.66699 0.333344ZM11.917 4.50001C11.917 3.80965 12.4767 3.25001 13.167 3.25001C13.8573 3.25001 14.417 3.80965 14.417 4.50001C14.417 5.19037 13.8573 5.75001 13.167 5.75001C12.4767 5.75001 11.917 5.19037 11.917 4.50001ZM13.167 2.00001C11.7862 2.00001 10.667 3.1193 10.667 4.50001C10.667 5.88076 11.7862 7.00001 13.167 7.00001C14.5477 7.00001 15.667 5.88076 15.667 4.50001C15.667 3.1193 14.5477 2.00001 13.167 2.00001ZM10.874 12.8648C11.4592 13.1027 12.2101 13.25 13.1678 13.25C15.0697 13.25 16.1559 12.6689 16.7486 11.9518C17.0362 11.6037 17.1825 11.2523 17.2567 10.9829C17.2937 10.8484 17.3132 10.7333 17.3232 10.6475C17.3283 10.6045 17.3312 10.5684 17.3327 10.5406C17.3334 10.5267 17.3339 10.5148 17.3342 10.5049L17.3344 10.4919L17.3345 10.4866V10.4843V10.4822C17.3345 9.47951 16.5217 8.66668 15.519 8.66668H10.8167C10.7937 8.66668 10.771 8.66709 10.7484 8.66793C11.0767 9.01051 11.3159 9.43918 11.4287 9.91668H15.519C15.8287 9.91668 16.0802 10.1655 16.0844 10.4741C16.0842 10.4788 16.0834 10.4879 16.0819 10.5009C16.0782 10.5323 16.0699 10.5846 16.0516 10.651C16.0151 10.7835 15.9401 10.9678 15.785 11.1554C15.4922 11.5097 14.8076 12 13.1678 12C12.3511 12 11.7713 11.8783 11.3588 11.7125C11.2696 12.0459 11.1213 12.4482 10.874 12.8648ZM2.54199 8.66668C1.50646 8.66668 0.666992 9.50618 0.666992 10.5417V10.7509V10.7518L0.667001 10.754L0.667051 10.7593L0.667284 10.7731C0.667526 10.7838 0.667967 10.7976 0.668742 10.8143C0.670292 10.8474 0.6732 10.8921 0.678642 10.9465C0.6895 11.0551 0.710601 11.2042 0.751701 11.3803C0.833617 11.7313 0.997442 12.2003 1.32685 12.6709C2.00921 13.6458 3.31014 14.5 5.66699 14.5C8.02383 14.5 9.32474 13.6458 10.0072 12.6709C10.3366 12.2003 10.5004 11.7313 10.5822 11.3803C10.6234 11.2042 10.6445 11.0551 10.6553 10.9465C10.6608 10.8921 10.6637 10.8474 10.6652 10.8143C10.666 10.7976 10.6665 10.7838 10.6667 10.7731L10.6669 10.7593L10.667 10.754V10.7518V10.5417C10.667 9.50618 9.82749 8.66668 8.79199 8.66668H2.54199ZM1.91738 10.756L1.91699 10.7456V10.5417C1.91699 10.1965 2.19682 9.91668 2.54199 9.91668H8.79199C9.13716 9.91668 9.41699 10.1965 9.41699 10.5417V10.7455L9.41658 10.756C9.41599 10.7685 9.41466 10.7911 9.41158 10.8221C9.40532 10.8843 9.39224 10.9794 9.36499 11.0963C9.31016 11.3312 9.20057 11.6434 8.98308 11.9541C8.57174 12.5418 7.68516 13.25 5.66699 13.25C3.64884 13.25 2.76228 12.5418 2.35088 11.9541C2.13342 11.6434 2.02381 11.3312 1.969 11.0963C1.94174 10.9794 1.92866 10.8843 1.92243 10.8221C1.91933 10.7911 1.91797 10.7685 1.91738 10.756Z" fill="#323232"/>
</svg>
