<svg width="18" height="14" viewBox="0 0 18 14" fill="none" xmlns="http://www.w3.org/2000/svg">
<path d="M15.4548 0.333328C16.4903 0.333328 17.3298 1.17279 17.3298 2.20833V11.7955C17.3298 12.831 16.4903 13.6705 15.4548 13.6705H2.54199C1.50646 13.6705 0.666992 12.831 0.666992 11.7955V2.20833C0.666992 1.17279 1.50646 0.333328 2.54199 0.333328H15.4548ZM15.4548 1.58333H2.54199C2.19682 1.58333 1.91699 1.86315 1.91699 2.20833V11.7955C1.91699 12.1407 2.19682 12.4205 2.54199 12.4205L4.83283 12.42L4.83366 10.125C4.83366 9.35983 5.42292 8.73233 6.17238 8.67149L6.29199 8.66666H11.7042C12.4694 8.66666 13.0969 9.25591 13.1577 10.0054L13.1626 10.125L13.162 12.42L15.4548 12.4205C15.8 12.4205 16.0798 12.1407 16.0798 11.7955V2.20833C16.0798 1.86315 15.8 1.58333 15.4548 1.58333ZM11.7042 9.91666H6.29199C6.19337 9.91666 6.11075 9.98516 6.08916 10.0772L6.08366 10.125L6.08283 12.42H11.912L11.9126 10.125C11.9126 10.0264 11.8441 9.94374 11.752 9.92216L11.7042 9.91666ZM9.00033 2.83371C10.3811 2.83371 11.5003 3.953 11.5003 5.33374C11.5003 6.71441 10.3811 7.83374 9.00033 7.83374C7.61958 7.83374 6.50033 6.71441 6.50033 5.33374C6.50033 3.953 7.61958 2.83371 9.00033 2.83371ZM9.00033 4.08371C8.30999 4.08371 7.75033 4.64335 7.75033 5.33374C7.75033 6.02408 8.30999 6.58374 9.00033 6.58374C9.69066 6.58374 10.2503 6.02408 10.2503 5.33374C10.2503 4.64335 9.69066 4.08371 9.00033 4.08371Z" fill="#323232"/>
</svg>
